<svg width="32" height="27" viewBox="0 0 32 27" fill="none" xmlns="http://www.w3.org/2000/svg">
<path d="M3.07137 8.34069C3.47616 8.6383 4.69637 9.5222 6.73204 10.9919C8.76778 12.4617 10.3273 13.5933 11.4106 14.387C11.5297 14.474 11.7825 14.6631 12.1694 14.9545C12.5563 15.2462 12.8778 15.4819 13.1336 15.6617C13.3896 15.8414 13.6991 16.0431 14.0623 16.2662C14.4255 16.4892 14.7678 16.657 15.0892 16.768C15.4107 16.88 15.7083 16.9354 15.982 16.9354H16H16.018C16.2918 16.9354 16.5895 16.8799 16.911 16.768C17.2323 16.657 17.5749 16.489 17.9377 16.2662C18.3007 16.0428 18.6102 15.8414 18.8662 15.6617C19.1222 15.4819 19.4435 15.2462 19.8305 14.9545C20.2173 14.6628 20.4705 14.474 20.5895 14.387C21.6845 13.5933 24.4705 11.5777 28.9465 8.3403C29.8155 7.70801 30.5416 6.94506 31.1248 6.05197C31.7085 5.15928 32 4.22279 32 3.24304C32 2.42431 31.7171 1.72346 31.1516 1.14056C30.5861 0.557527 29.9164 0.266174 29.1428 0.266174H2.85702C1.94042 0.266174 1.23503 0.58861 0.740979 1.23348C0.246993 1.87848 0 2.68471 0 3.65208C0 4.43347 0.327489 5.28022 0.982155 6.19182C1.63676 7.10347 2.33339 7.81983 3.07137 8.34069Z" fill="white" fill-opacity="0.7"/>
<path d="M30.214 10.3313C26.3097 13.0846 23.345 15.2244 21.3215 16.7501C20.6429 17.2709 20.0924 17.6774 19.6697 17.9687C19.247 18.2601 18.6847 18.5578 17.9822 18.8616C17.28 19.1657 16.6255 19.3174 16.0182 19.3174H16H15.9821C15.3749 19.3174 14.7201 19.1657 14.0178 18.8616C13.3156 18.5578 12.753 18.2601 12.3304 17.9687C11.9079 17.6774 11.3572 17.2709 10.6787 16.7501C9.07148 15.5223 6.1132 13.3824 1.80375 10.3313C1.12501 9.86027 0.523819 9.32037 0 8.71271V23.4847C0 24.3038 0.279641 25.0043 0.839236 25.5873C1.39871 26.1704 2.07145 26.4619 2.85721 26.4619H29.143C29.9286 26.4619 30.6012 26.1704 31.1608 25.5873C31.7205 25.0041 32 24.3039 32 23.4847V8.71271C31.488 9.3078 30.8929 9.84769 30.214 10.3313Z" fill="white" fill-opacity="0.7"/>
</svg>
