<svg width="25" height="25" viewBox="0 0 25 25" fill="none" xmlns="http://www.w3.org/2000/svg">
<path d="M3.20884 0H21.7912C23.5559 0 24.9997 1.30654 24.9997 3.20858V21.7914C24.9997 23.6935 23.5559 25 21.7912 25H3.20884C1.44361 25 0 23.6935 0 21.7914V3.20858C0 1.30654 1.44361 0 3.20884 0ZM18.2114 2.77761C17.5923 2.77761 17.0863 3.28379 17.0863 3.90318V6.5971C17.0863 7.21623 17.5923 7.72268 18.2114 7.72268H21.037C21.6561 7.72268 22.1626 7.21623 22.1626 6.5971V3.90318C22.1626 3.28379 21.6561 2.77761 21.037 2.77761H18.2114ZM22.1744 10.5724H19.9741C20.1822 11.2521 20.2949 11.9721 20.2949 12.717C20.2949 16.8754 16.8153 20.2462 12.5237 20.2462C8.23246 20.2462 4.75332 16.8754 4.75332 12.717C4.75332 11.9716 4.86575 11.2519 5.07418 10.5724H2.77812V21.1328C2.77812 21.6792 3.22527 22.1266 3.77201 22.1266H21.181C21.7278 22.1266 22.1749 21.6795 22.1749 21.1328V10.5724H22.1744ZM12.5235 7.58073C9.75076 7.58073 7.5027 9.75871 7.5027 12.4457C7.5027 15.1327 9.75076 17.3107 12.5235 17.3107C15.2965 17.3107 17.5448 15.1327 17.5448 12.4457C17.5448 9.75871 15.2967 7.58073 12.5235 7.58073Z" fill="white" fill-opacity="0.7"/>
</svg>
