<svg width="25" height="27" viewBox="0 0 25 27" fill="none" xmlns="http://www.w3.org/2000/svg">
<path d="M23.6248 1.88077C22.7083 0.922312 21.604 0.442993 20.3129 0.442993H4.68754C3.3964 0.442993 2.29215 0.922312 1.37522 1.88077C0.458463 2.83941 0 3.99384 0 5.34376V21.6797C0 23.0295 0.458463 24.184 1.37522 25.1427C2.29215 26.1013 3.3964 26.5806 4.68754 26.5806H20.3127C21.6038 26.5806 22.7081 26.1013 23.6246 25.1427C24.5415 24.184 25 23.0295 25 21.6797V5.34376C24.9999 3.99384 24.5415 2.83923 23.6248 1.88077ZM20.475 20.2829C20.2471 20.8047 19.7345 21.2587 18.9371 21.6446C18.1395 22.0305 17.4313 22.2234 16.8126 22.2234C16.639 22.2234 16.4545 22.2094 16.2592 22.1811C16.0639 22.1525 15.8987 22.1243 15.7631 22.0959C15.6275 22.0676 15.4482 22.0166 15.226 21.9428C15.0034 21.8692 14.8432 21.8123 14.7459 21.7727C14.6479 21.7331 14.469 21.6622 14.2088 21.5601C13.9483 21.4577 13.7854 21.3953 13.7207 21.3731C11.9411 20.692 10.202 19.4642 8.50398 17.6889C6.80592 15.9131 5.63126 14.0953 4.98016 12.2352C4.95861 12.167 4.89892 11.9968 4.80115 11.7247C4.70356 11.4526 4.63554 11.2653 4.59758 11.1633C4.55984 11.0612 4.50551 10.8938 4.43493 10.6614C4.36441 10.4288 4.31573 10.2418 4.28853 10.0998C4.26128 9.9582 4.23437 9.78529 4.20718 9.58104C4.18005 9.37678 4.16653 9.18367 4.16653 9.0023C4.16653 8.35562 4.35107 7.61543 4.72009 6.78159C5.08905 5.94788 5.523 5.41188 6.02222 5.1736C6.59733 4.92392 7.14529 4.79912 7.66618 4.79912C7.78539 4.79912 7.87232 4.81056 7.92642 4.83321C7.98075 4.85616 8.07031 4.95802 8.19516 5.13956C8.32001 5.32111 8.45558 5.55076 8.60203 5.82874C8.74855 6.10678 8.89232 6.37624 9.03336 6.63706C9.1744 6.89794 9.31008 7.15589 9.44035 7.41135C9.57055 7.66638 9.65191 7.82826 9.6844 7.89609C9.71695 7.95313 9.78753 8.06071 9.89596 8.21967C10.0044 8.37839 10.086 8.52 10.1401 8.64493C10.1943 8.76974 10.2215 8.88888 10.2215 9.0023C10.2215 9.1727 10.1101 9.37964 9.88775 9.62335C9.66525 9.8673 9.42108 10.0915 9.15519 10.2957C8.8893 10.5 8.64525 10.7184 8.4228 10.951C8.20052 11.1834 8.08918 11.3734 8.08918 11.5209C8.08918 11.6003 8.10817 11.6939 8.14619 11.8016C8.18416 11.9096 8.21945 11.9975 8.252 12.0655C8.28455 12.1335 8.3362 12.23 8.40661 12.3549C8.47713 12.4798 8.52336 12.5592 8.54491 12.5933C9.14162 13.7163 9.82806 14.6835 10.6037 15.4947C11.3797 16.3061 12.3046 17.0234 13.379 17.6474C13.4113 17.6703 13.4874 17.7184 13.6073 17.7922C13.7265 17.8656 13.819 17.9195 13.8839 17.9536C13.9491 17.9876 14.033 18.0245 14.1362 18.0639C14.2394 18.1035 14.329 18.1235 14.4052 18.1235C14.5783 18.1235 14.8171 17.9364 15.1213 17.5621C15.425 17.1875 15.7344 16.816 16.0491 16.4473C16.3636 16.0789 16.6184 15.8945 16.8141 15.8945C16.9225 15.8945 17.0362 15.9227 17.1561 15.9794C17.2755 16.0361 17.4108 16.1214 17.5627 16.2348C17.7148 16.3486 17.8178 16.422 17.8721 16.4565L18.7344 16.9495C19.3095 17.2673 19.7896 17.548 20.175 17.7919C20.5603 18.0359 20.7692 18.2031 20.8018 18.2937C20.8234 18.3504 20.834 18.4414 20.834 18.5662C20.8336 19.1102 20.7141 19.6832 20.475 20.2829Z" fill="white" fill-opacity="0.7"/>
</svg>
