<svg width="32" height="19" viewBox="0 0 32 19" fill="none" xmlns="http://www.w3.org/2000/svg">
<path d="M30.214 2.33128C26.3097 5.08458 23.345 7.22435 21.3215 8.75013C20.6429 9.27087 20.0924 9.67737 19.6697 9.96866C19.247 10.2601 18.6847 10.5578 17.9822 10.8616C17.28 11.1657 16.6255 11.3174 16.0182 11.3174H16H15.9821C15.3749 11.3174 14.7201 11.1657 14.0178 10.8616C13.3156 10.5578 12.753 10.2601 12.3304 9.96866C11.9079 9.67737 11.3572 9.27087 10.6787 8.75013C9.07148 7.52229 6.1132 5.38239 1.80375 2.33128C1.12501 1.86027 0.523819 1.32037 0 0.712708V15.4847C0 16.3038 0.279641 17.0043 0.839236 17.5873C1.39871 18.1704 2.07145 18.4619 2.85721 18.4619H29.143C29.9286 18.4619 30.6012 18.1704 31.1608 17.5873C31.7205 17.0041 32 16.3039 32 15.4847V0.712708C31.488 1.3078 30.8929 1.84769 30.214 2.33128Z" fill="white" fill-opacity="0.7"/>
</svg>
