<svg width="17" height="25" viewBox="0 0 17 25" fill="none" xmlns="http://www.w3.org/2000/svg">
<path d="M8.49965 0C3.81317 0 0 4.12897 0 9.20409C0 10.5279 0.250226 11.7918 0.743353 12.9611C2.8685 17.9965 6.943 23.3129 8.14144 24.8222C8.23123 24.935 8.36213 25 8.49988 25C8.63764 25 8.76854 24.935 8.85833 24.8222C10.0563 23.3132 14.1308 17.997 16.2566 12.9611C16.75 11.7918 17 10.5279 17 9.20409C16.9995 4.12897 13.1864 0 8.49965 0ZM8.49965 13.9847C6.0652 13.9847 4.08442 11.8399 4.08442 9.20383C4.08442 6.56751 6.0652 4.42269 8.49965 4.42269C10.9341 4.42269 12.9149 6.56751 12.9149 9.20383C12.9151 11.8399 10.9343 13.9847 8.49965 13.9847Z" fill="white" fill-opacity="0.7"/>
</svg>
