<svg width="34" height="23" viewBox="0 0 34 23" fill="none" xmlns="http://www.w3.org/2000/svg">
<path d="M33.4125 4.11129C32.9962 2.43607 31.5173 1.20014 29.7368 1.01578C25.5206 0.579736 21.2532 0.57746 17.0054 0.579736C12.757 0.57746 8.48886 0.579736 4.27268 1.01578C2.49327 1.20014 1.01535 2.43607 0.599102 4.11129C0.00666841 6.49699 0 9.10119 0 11.5574C0 14.0137 0 16.6176 0.592434 19.0029C1.00798 20.6778 2.48626 21.9138 4.26671 22.0985C8.48254 22.5348 12.7503 22.5371 16.9988 22.5348C21.2479 22.5371 25.5147 22.5348 29.7301 22.0985C31.5095 21.9141 32.9889 20.6782 33.4051 19.0029C33.9979 16.6172 34 14.0134 34 11.5574C34 9.10119 34.0049 6.49699 33.4125 4.11129ZM12.6124 16.4465C12.6124 12.9621 12.6124 9.51414 12.6124 6.02941C16.2158 7.77129 19.7953 9.50146 23.4215 11.2541C19.8065 12.9911 16.2252 14.7108 12.6124 16.4465Z" fill="white" fill-opacity="0.7"/>
</svg>
