<svg width="4" height="34" viewBox="0 0 4 34" fill="none" xmlns="http://www.w3.org/2000/svg">
<path fill-rule="evenodd" clip-rule="evenodd" d="M3.37954 2.21687C3.37954 3.03199 2.71876 3.69277 1.90364 3.69277C1.08852 3.69277 0.427734 3.03199 0.427734 2.21687C0.427734 1.40175 1.08852 0.740967 1.90364 0.740967C2.71876 0.740967 3.37954 1.40175 3.37954 2.21687ZM3.37954 9.59626C3.37954 10.4114 2.71876 11.0722 1.90364 11.0722C1.08852 11.0722 0.427734 10.4114 0.427734 9.59626C0.427734 8.78115 1.08852 8.12036 1.90364 8.12036C2.71876 8.12036 3.37954 8.78115 3.37954 9.59626ZM1.90364 18.4518C2.71876 18.4518 3.37954 17.791 3.37954 16.9759C3.37954 16.1608 2.71876 15.5 1.90364 15.5C1.08852 15.5 0.427734 16.1608 0.427734 16.9759C0.427734 17.791 1.08852 18.4518 1.90364 18.4518ZM3.37954 24.3553C3.37954 25.1704 2.71876 25.8312 1.90364 25.8312C1.08852 25.8312 0.427734 25.1704 0.427734 24.3553C0.427734 23.5402 1.08852 22.8794 1.90364 22.8794C2.71876 22.8794 3.37954 23.5402 3.37954 24.3553ZM1.90364 33.2108C2.71876 33.2108 3.37954 32.5501 3.37954 31.7349C3.37954 30.9198 2.71876 30.259 1.90364 30.259C1.08852 30.259 0.427734 30.9198 0.427734 31.7349C0.427734 32.5501 1.08852 33.2108 1.90364 33.2108Z" fill="#9D9D9D"/>
</svg>
