<svg width="231" height="106" viewBox="0 0 231 106" fill="none" xmlns="http://www.w3.org/2000/svg">
<path fill-rule="evenodd" clip-rule="evenodd" d="M55.4804 19.9444C55.4804 8.35444 45.5584 0.91754 30.5974 0.91754H0V67.4633H33.2467C48.3116 67.4633 58.2337 59.8333 58.2337 47.9535C58.2337 41.8688 54.4934 36.1704 47.8441 32.5968C53.5584 29.651 55.4804 24.0009 55.4804 19.9444ZM222.233 24.7736C223.532 23.4214 224.571 21.4415 225.35 19.2683C226.753 15.5499 227.428 11.2036 227.532 8.30615C227.584 7.05057 227.532 5.84328 227.324 4.78087C227.168 3.81503 226.857 2.99408 226.389 2.318C226.13 1.93166 225.818 1.59362 225.454 1.35216C224.935 0.965831 224.311 0.772665 223.688 0.724374C223.065 0.62779 222.441 0.772665 221.87 1.11071C221.558 1.25558 221.246 1.49704 220.987 1.83508C220.363 2.60774 220.156 3.67016 219.948 4.63599L219.896 4.82916C219.065 10.6241 218.909 14.246 217.766 16.1777C215.22 20.4756 211.636 17.2884 211.896 17.5298C211.844 17.6747 212.052 18.1093 212.415 18.544C214.649 20.9585 217.974 19.5098 219.636 17.2884C220.571 16.0328 221.039 14.1011 221.35 12.8456C221.87 10.6241 222.285 8.06469 222.597 6.08474C222.701 5.1672 222.909 4.53941 223.168 4.15308C223.272 3.95991 223.428 3.86333 223.584 3.76674C223.688 3.71845 223.792 3.67016 223.896 3.71845C224 3.71845 224.104 3.71845 224.156 3.76674C224.415 3.95991 224.623 4.24966 224.727 4.73257C224.883 5.21549 224.935 5.89157 224.883 6.76082C224.779 9.03052 224.415 13.6665 223.272 17.6264C222.649 19.5581 221.87 21.3449 220.779 22.5522C219.532 23.9526 216.935 24.3872 215.065 24.2424C213.402 24.1458 211.169 23.6629 208.727 23.18C204 22.2141 194.701 20.041 190.441 22.7936C188.987 23.7112 188 25.2082 188 27.2847C188.052 28.8301 188.779 30.5686 190.493 32.4519C192.052 34.0938 194.078 35.3011 196.311 36.3153C198.493 37.2811 200.831 37.9572 203.065 38.5367C205.298 38.923 207.013 39.1645 208.727 39.3093C210.441 39.4542 212.156 39.5025 214.389 39.5025C218.337 42.6898 224.207 51.0925 226.753 57.8533C227.376 59.3986 228.467 63.3102 227.948 65.0005C227.688 65.918 226.805 66.1112 225.87 65.3868C225.766 65.2902 225.35 64.7107 224.987 64.0346C220.104 53.8934 213.974 44.1868 202.493 39.3093C197.714 37.2811 192.987 37.0396 192.571 42.9312C192.571 43.221 192.519 43.5107 192.519 43.8005C192.571 47.6155 191.22 50.4647 189.091 52.8793C186.961 55.2938 184.052 57.2738 181.039 59.3021C178.909 60.7025 177.662 62.1995 177.195 63.6C176.935 64.3727 176.883 65.1453 177.091 65.8214C177.298 66.4492 177.766 67.0287 178.441 67.4633C179.376 67.9945 180.623 68.2843 182.233 68.1877C189.246 67.8497 202.597 54.7626 204 48.5813V48.533C204 48.3399 203.896 48.2916 203.688 48.2916C204.623 48.533 191.428 63.4068 182.805 65.1453C182.233 65.3385 181.61 65.2902 181.195 65.1453C180.987 65.0487 180.779 64.9039 180.675 64.759C180.571 64.6141 180.519 64.421 180.571 64.2278C180.623 63.8415 180.883 63.3585 181.454 62.8273C182.233 62.2478 183.221 61.5235 184.208 60.7991C187.48 58.4811 190.026 56.5011 191.948 54.0866C193.87 51.672 195.117 48.8228 195.688 44.6697C196.104 41.6273 198.597 41.4342 201.402 42.062C210.182 43.9936 219.74 58.0948 222.078 63.6966L222.285 64.2278C222.441 64.5175 222.545 64.8073 222.649 65.097C223.117 66.3043 223.532 67.4633 224.675 68.3326C225.091 68.6223 225.454 68.8638 225.87 69.0087C226.285 69.1535 226.753 69.2018 227.22 69.2501C227.688 69.2501 228.156 69.1535 228.571 68.9604C229.039 68.8155 229.454 68.574 229.818 68.236V68.1877H229.87C231.48 66.0146 231.22 62.7308 230.026 59.0606C228.467 54.2797 225.194 48.9194 222.285 44.8629C221.246 43.4141 220.259 42.1585 219.376 41.1444C218.597 40.2269 217.974 39.5508 217.454 39.0679C219.169 38.7298 221.454 38.2469 223.272 37.2811C225.35 36.267 226.909 34.6733 226.597 32.1622C226.337 31.1481 225.818 30.472 225.091 29.9891C224.415 29.5544 223.584 29.4096 222.649 29.3613C221.818 29.313 220.883 29.4096 220.052 29.5061C219.272 29.651 218.545 29.8442 217.974 29.9891C213.506 30.81 212.987 30.7617 209.974 30.6651C207.688 28.5886 202.493 25.8843 199.272 26.3189C198.701 26.4155 198.233 26.5604 197.87 26.8018C197.506 27.0916 197.298 27.4296 197.298 27.8642C197.246 28.492 197.662 29.2647 198.597 30.1339C199.48 30.7617 200.363 31.2929 201.298 31.7276C202.233 32.1139 203.22 32.4519 204.207 32.6934C207.013 33.4178 209.298 33.6592 211.584 33.6592C213.87 33.6592 216.104 33.3212 218.909 32.8866C219.013 32.8383 219.065 32.8383 219.117 32.8383C219.74 32.6451 220.259 32.5485 220.727 32.4519C221.194 32.3554 221.558 32.3071 221.922 32.2588C222.389 32.2588 222.753 32.3554 222.961 32.5485C223.065 32.6451 223.168 32.8383 223.22 33.0314C223.272 33.2246 223.22 33.4178 223.168 33.6592C223.013 34.0938 222.649 34.5768 222.078 34.8182C221.87 34.9148 221.61 35.0114 221.35 35.1563C221.091 35.2046 220.883 35.3011 220.623 35.3977C219.896 35.6392 219.117 35.7841 218.753 35.8323L218.493 35.8806C216.883 36.267 215.532 36.5084 214.285 36.605C213.091 36.7016 212.052 36.7499 211.013 36.7016C206.285 36.5567 202.389 35.7358 199.324 34.5285C195.636 33.1763 193.195 31.2929 191.948 29.5061C191.272 28.5886 190.961 27.8159 190.909 27.1399C190.701 25.4497 192.104 24.5804 193.662 24.1941C195.117 23.8077 196.987 23.8077 198.701 24.0492C200.727 24.3872 202.961 24.8702 205.194 25.4014C212.052 27.0433 219.169 28.7335 222.233 24.7736ZM206.337 15.3084C206.805 14.1494 207.065 13.1836 207.169 12.3626C207.272 11.4934 207.22 10.769 206.961 10.2378C206.857 9.99636 206.701 9.7549 206.493 9.56173C206.285 9.36856 206.078 9.1754 205.818 9.03052C205.506 8.88565 205.194 8.78907 204.883 8.69248C204.519 8.64419 204.156 8.5959 203.792 8.54761C203.117 8.54761 202.545 8.64419 202.026 8.78907C201.454 8.98223 201.039 9.22369 200.727 9.51344C200.467 9.7549 200.311 9.94806 200.156 10.2378C200 10.4793 199.896 10.7207 199.792 11.0588C199.688 11.5417 199.584 12.0729 199.584 12.7007C199.532 13.3768 199.532 14.1977 199.688 15.2118C199.74 15.6465 199.896 16.1294 200.156 16.5157C200.415 16.9503 200.727 17.2884 201.143 17.6264C201.35 17.7713 201.61 17.9162 201.87 18.061C202.13 18.1576 202.389 18.2542 202.649 18.2542C202.909 18.3025 203.117 18.3025 203.376 18.2542C203.636 18.2542 203.896 18.1576 204.104 18.061C204.519 17.8679 204.935 17.5298 205.298 17.0469C205.662 16.6123 206.026 16.0328 206.337 15.3084ZM210.285 8.98223C210.649 9.89977 210.805 11.0588 210.753 12.2178C210.701 13.9563 210.182 15.8396 209.298 17.4333C208.415 19.0752 207.117 20.379 205.454 21.0068C204.779 21.2483 204.052 21.3932 203.272 21.3449C201.714 21.2966 200.156 20.6205 198.857 19.5098C196.415 17.2401 196.207 14.9221 196.519 12.0246C196.571 11.0588 196.779 10.2378 197.091 9.46515C197.61 8.11298 198.597 7.05057 199.792 6.2779C200.987 5.55353 202.389 5.1672 203.948 5.26378C204.623 5.26378 205.246 5.36036 205.87 5.50524C206.441 5.65011 207.013 5.89157 207.532 6.13303C208.156 6.47107 208.727 6.8574 209.194 7.38861C209.61 7.82323 210.026 8.35444 210.285 8.98223ZM207.272 30.6169C206.597 30.1339 204.987 29.2647 203.376 28.6852C200.935 27.8159 198.597 28.154 202.493 29.4579C202.805 29.5544 203.117 29.651 203.48 29.7476C205.298 30.2305 205.87 30.5203 207.272 30.6169ZM0 77.4597H230.961V80.985H0V77.4597ZM5.40259 105.759H0V91.5125H5.40259C7.7922 91.5125 9.81817 92.2852 11.2208 93.5408C12.7273 94.7964 13.5584 96.5831 13.5584 98.6597C13.5584 100.688 12.7273 102.475 11.2208 103.779C9.81817 104.986 7.7922 105.759 5.40259 105.759ZM1.92208 93.2027V104.117H5.40259C7.22077 104.117 8.77921 103.537 9.81817 102.571C10.961 101.605 11.5844 100.205 11.5844 98.6597C11.5844 97.0661 10.961 95.7139 9.81817 94.6998C8.77921 93.7822 7.22077 93.2027 5.40259 93.2027H1.92208ZM22.0779 105.759H20.1558C22.4935 100.978 24.8311 96.1968 27.1688 91.4159H28.935C31.2727 96.1968 33.6103 100.978 35.948 105.759H33.8701L32.1038 102.04H23.948L22.1818 105.759H22.0779ZM28.0519 93.6374L24.7272 100.446H31.3246L28.0519 93.6374ZM46.0259 105.759H44.2597V91.5125H46.0259L55.4285 102.571V91.5125H57.2986V105.759H55.7921L46.1298 94.4583V105.759H46.0259ZM77.5583 105.372C76.5194 105.759 75.4285 106 74.0259 106C71.7921 106 69.87 105.227 68.5194 103.875C67.1168 102.571 66.2856 100.736 66.2856 98.6597C66.2856 96.5831 67.1168 94.7481 68.5194 93.3959C69.922 92.092 71.844 91.2711 74.0778 91.2711C75.4804 91.2711 76.5713 91.5125 77.5064 91.9472C78.4934 92.3335 79.2726 92.913 80.0518 93.5891L80.1038 93.6374L78.857 94.9412L78.7531 94.8446C78.1298 94.3134 77.4544 93.8305 76.6752 93.4925C75.9479 93.1544 75.0648 92.9613 74.0259 92.9613C72.4155 92.9613 70.9609 93.5891 69.922 94.6032C68.883 95.6173 68.2596 97.0178 68.2596 98.6597C68.2596 100.253 68.883 101.702 69.922 102.716C70.9609 103.73 72.4155 104.358 74.0259 104.358C75.0648 104.358 75.9479 104.165 76.6752 103.827C77.4544 103.489 78.1817 102.958 78.909 102.33L78.9609 102.282L80.2596 103.537L80.1557 103.585C79.3765 104.358 78.5453 104.938 77.5583 105.372ZM99.7401 105.759H88.5193V91.5125H99.7401V93.1544H90.4414V97.7904H98.7531V99.4323H90.4414V104.117H99.844V105.759H99.7401ZM124.935 105.372C123.948 105.759 122.805 106 121.402 106C119.221 106 117.299 105.227 115.896 103.875C114.545 102.571 113.714 100.736 113.714 98.6597C113.714 96.5831 114.545 94.7481 115.948 93.3959C117.35 92.092 119.273 91.2711 121.506 91.2711C122.909 91.2711 124 91.5125 124.935 91.9472C125.87 92.3335 126.701 92.913 127.428 93.5891L127.532 93.6374L126.234 94.9412L126.182 94.8446C125.558 94.3134 124.883 93.8305 124.104 93.4925C123.324 93.1544 122.493 92.9613 121.454 92.9613C119.844 92.9613 118.389 93.5891 117.35 94.6032C116.312 95.6173 115.688 97.0178 115.688 98.6597C115.688 100.253 116.312 101.702 117.35 102.716C118.389 103.73 119.844 104.358 121.454 104.358C122.493 104.358 123.324 104.165 124.104 103.827C124.883 103.489 125.61 102.958 126.286 102.33L126.389 102.282L127.636 103.537L127.584 103.585C126.805 104.358 125.922 104.938 124.935 105.372ZM147.169 105.759H135.948V91.5125H147.169V93.1544H137.87V97.7904H146.182V99.4323H137.87V104.117H147.273V105.759H147.169ZM157.818 105.759H156.052V91.5125H157.818L167.221 102.571V91.5125H169.143V105.759H167.584L157.922 94.4583V105.759H157.818ZM184.623 105.759H182.753V93.2027H177.662V91.5125H189.818V93.2027H184.727V105.759H184.623ZM200.207 105.759H198.389V91.5125H205.039C205.974 91.5125 206.805 91.6574 207.532 91.8989C208.311 92.1403 208.935 92.5266 209.402 92.9613C209.818 93.2993 210.13 93.7339 210.337 94.2651C210.545 94.7481 210.649 95.2793 210.649 95.8588C210.649 96.9695 210.233 97.887 209.506 98.6114C208.779 99.2875 207.792 99.7704 206.597 100.012L211.272 105.759H208.883L204.467 100.302H200.311V105.759H200.207ZM200.311 93.2027V98.708H204.883C206.026 98.708 206.961 98.4182 207.636 97.887C208.311 97.4524 208.675 96.728 208.675 95.8588C208.675 95.0378 208.311 94.3617 207.688 93.9271C207.065 93.4442 206.078 93.2027 204.883 93.2027H200.311ZM230.857 105.759H219.636V91.5125H230.857V93.1544H221.558V97.7904H229.87V99.4323H221.558V104.117H230.961V105.759H230.857ZM117.818 67.3667V66.4975L103.584 42.3517C111.013 38.0055 113.506 32.0173 113.61 24.3872C113.61 10.3344 102.389 0.91754 85.4025 0.91754H55.896V8.88565C58.0259 12.0246 59.1687 15.7431 59.1687 19.9444C59.1687 22.5522 58.4934 25.7394 56.6752 28.6852C56.4674 29.1198 56.1558 29.5061 55.896 29.9408V34.5285C56.9869 35.5909 57.922 36.7016 58.7532 37.9089C60.8311 40.9995 61.922 44.4282 61.922 47.9535C61.922 53.7968 59.7402 58.7708 55.896 62.5859V67.3667H76.5713V46.5531H84.4674L95.2206 67.3667H117.818ZM178.649 34.1904C178.649 13.6665 164.104 0 142.182 0C130.078 0 120.156 4.15308 113.714 11.3002C116.052 15.067 117.299 19.5098 117.299 24.3872V24.4355C117.247 28.5886 116.519 32.3554 114.753 35.6875C113.299 38.4884 111.117 40.9995 108.156 43.1727L119.117 61.8132C125.195 66.0629 133.091 68.3809 142.182 68.3809C164.104 68.3809 178.649 54.7144 178.649 34.1904ZM126.078 34.1904C126.078 23.5663 132.519 16.3226 142.182 16.3226C151.636 16.3226 157.87 23.5663 157.87 34.1904C157.87 44.8146 151.636 52.1549 142.182 52.1549C132.519 52.1549 126.078 44.8146 126.078 34.1904ZM76.2077 32.4036V15.9362H85.2986C90.2856 15.9362 93.6622 19.1718 93.6622 24.0009C93.6622 29.0715 90.2856 32.4036 85.2986 32.4036H76.2077ZM20.3117 27.0433V15.6465H28.8311C32.6233 15.6465 35.1688 18.061 35.0129 21.6346C34.909 24.8702 32.4155 27.0433 28.8311 27.0433H20.3117ZM20.3117 52.5412V40.7581H31.5844C35.0129 40.7581 37.7662 43.221 37.7662 46.8428C37.7662 50.2715 35.0129 52.5412 31.5844 52.5412H20.3117Z" fill="white"/>
</svg>
