<svg width="12" height="245" viewBox="0 0 12 245" fill="none" xmlns="http://www.w3.org/2000/svg">
<circle cx="5.90364" cy="14.759" r="1.4759" fill="#9D9D9D"/>
<circle cx="5.90363" cy="5.90363" r="3.68976" fill="#FF0000"/>
<circle cx="5.90359" cy="53.1325" r="2.95181" fill="#9D9D9D"/>
<circle cx="5.90359" cy="100.361" r="2.95181" fill="#9D9D9D"/>
<circle cx="5.90361" cy="5.90361" r="5.52861" stroke="#FF0000" stroke-width="0.75"/>
<circle cx="5.90364" cy="22.1385" r="1.4759" fill="#9D9D9D"/>
<circle cx="5.90364" cy="29.518" r="1.4759" fill="#9D9D9D"/>
<circle cx="5.90364" cy="36.8975" r="1.4759" fill="#9D9D9D"/>
<circle cx="5.90364" cy="44.2771" r="1.4759" fill="#9D9D9D"/>
<circle cx="5.90364" cy="61.988" r="1.4759" fill="#9D9D9D"/>
<circle cx="5.90364" cy="69.3675" r="1.4759" fill="#9D9D9D"/>
<circle cx="5.90364" cy="76.747" r="1.4759" fill="#9D9D9D"/>
<circle cx="5.90364" cy="84.1265" r="1.4759" fill="#9D9D9D"/>
<circle cx="5.90364" cy="91.5061" r="1.4759" fill="#9D9D9D"/>
<circle cx="5.90359" cy="147.59" r="2.95181" fill="#9D9D9D"/>
<circle cx="5.90364" cy="109.217" r="1.4759" fill="#9D9D9D"/>
<circle cx="5.90364" cy="116.596" r="1.4759" fill="#9D9D9D"/>
<circle cx="5.90364" cy="123.976" r="1.4759" fill="#9D9D9D"/>
<circle cx="5.90364" cy="131.355" r="1.4759" fill="#9D9D9D"/>
<circle cx="5.90364" cy="138.735" r="1.4759" fill="#9D9D9D"/>
<circle cx="5.90359" cy="194.819" r="2.95181" fill="#9D9D9D"/>
<circle cx="5.90364" cy="156.446" r="1.4759" fill="#9D9D9D"/>
<circle cx="5.90364" cy="163.825" r="1.4759" fill="#9D9D9D"/>
<circle cx="5.90364" cy="171.205" r="1.4759" fill="#9D9D9D"/>
<circle cx="5.90364" cy="178.584" r="1.4759" fill="#9D9D9D"/>
<circle cx="5.90364" cy="185.964" r="1.4759" fill="#9D9D9D"/>
<circle cx="5.90359" cy="242.048" r="2.95181" fill="#9D9D9D"/>
<circle cx="5.90364" cy="203.675" r="1.4759" fill="#9D9D9D"/>
<circle cx="5.90364" cy="211.054" r="1.4759" fill="#9D9D9D"/>
<circle cx="5.90364" cy="218.434" r="1.4759" fill="#9D9D9D"/>
<circle cx="5.90364" cy="225.813" r="1.4759" fill="#9D9D9D"/>
<circle cx="5.90364" cy="233.193" r="1.4759" fill="#9D9D9D"/>
</svg>
