<svg width="72" height="56" viewBox="0 0 72 56" fill="none" xmlns="http://www.w3.org/2000/svg">
<path fill-rule="evenodd" clip-rule="evenodd" d="M15.2115 8.5064C15.9141 8.63161 16.5921 8.60422 17.244 8.42423C18.1679 9.61242 19.149 10.781 20.2342 11.8388C19.9779 9.63198 18.4307 7.46038 16.9824 5.94222C18.1796 5.44269 19.3442 4.73578 20.4398 3.57238C21.4964 5.60963 24.1731 6.86564 26.9512 6.57087C27.9414 8.48162 28.9694 10.3585 30.0377 12.2027C29.9675 11.248 29.7762 10.3832 29.3962 9.44808C30.2889 9.6685 32.0599 10.3415 33.0735 10.6323C32.1418 8.92898 30.4697 7.62602 28.9291 6.25133C30.8575 5.83397 32.6753 5.294 34.0937 4.3145C35.9675 5.33052 37.9597 6.72217 40.4346 7.53603C41.2271 6.16134 41.7749 4.93794 41.8582 3.22675C43.7528 3.79932 45.7176 2.90068 46.648 2.69461L50.0533 9.44156C50.1757 7.16171 49.676 5.33704 48.3162 3.62324C49.8204 2.58244 51.0761 1.39687 51.9688 0C53.7319 2.04378 55.6773 3.95844 57.9506 5.64354C57.8295 5.98135 57.7515 6.31915 57.7319 6.65696C58.7196 6.55001 59.7085 6.02309 61.1191 5.33574C61.2336 5.2614 61.4014 5.30574 61.2804 5.42834C60.3735 7.79166 59.0605 11.1749 58.1744 14.0195C57.3936 14.3078 56.6272 14.6012 55.8842 14.9038C55.6643 14.999 55.5576 15.119 55.6734 15.2351C56.0768 15.5286 56.2225 15.6042 56.6714 15.8142L57.0019 17.7797L58.5192 15.7764L64.108 14.0078C62.1666 16.7285 60.7274 19.6174 59.7046 22.6446C56.4073 22.5455 53.3208 20.5343 51.0696 19.1283C49.9597 19.8691 49.0163 20.5565 48.3344 21.8021C46.8146 20.3635 44.069 19.8574 41.3208 21.669L39.4431 20.5774C39.633 19.997 39.9492 19.3213 40.2707 18.7083L39.3051 17.5789C37.6096 19.2222 36.419 20.7026 35.9401 22.3068L40.8627 21.986L39.7111 23.3985C42.0416 24.1719 43.8777 24.7992 46.255 24.6193C48.6389 27.8473 51.3155 30.4858 54.16 32.7905L53.663 35.4603L53.1815 35.8164L53.905 36.1007C56.1939 38.5501 58.013 39.9809 60.9005 41.5681C61.3051 41.7768 61.7332 41.8107 62.2303 41.3269C63.1971 40.3591 64.0325 39.2583 64.8159 38.1053C67.0397 37.9919 69.5003 37.6175 72 37.1806C69.3494 40.0983 66.8939 43.0028 64.9798 45.8748C61.1425 44.0228 58.8029 43.4332 55.8556 44.538C54.7378 43.5598 53.5771 42.1929 52.553 41.1077C50.6064 42.7016 50.3279 43.0928 49.4092 44.7349C45.5289 42.6429 44.5882 42.112 40.1041 42.4511C39.8582 41.0204 39.339 39.7474 38.7508 38.5475L35.1607 38.4744C33.6174 40.1974 32.7014 42.455 32.4684 42.9859C28.6571 41.6712 25.7866 42.4629 22.8653 43.7528C23.054 42.2972 21.3598 41.0921 18.9395 39.557C20.7638 39.7057 22.5712 39.7904 24.3513 39.7709C23.1412 39.3835 21.5784 37.8001 20.2889 37.4389L19.5277 38.3805C18.3266 38.4392 17.2934 38.5918 16.1496 38.8383L15.6344 40.7334C12.6285 40.5221 10.6298 41.2251 8.4177 42.7589C6.1015 39.75 3.43787 38.1392 0.697463 36.2872L11.0085 36.4933C11.4704 37.3854 11.6799 37.8184 12.1809 38.4079L13.0709 36.5415C12.1627 36.0316 11.4249 35.8607 9.95185 35.9455C9.11386 33.2287 7.61093 28.7551 5.31945 26.68C5.51724 28.0338 5.59792 28.9077 5.60573 30.255C4.26936 29.2768 3.77619 29.0159 2.27716 28.2699C1.86988 26.8104 1.14379 25.4331 0 24.3428C4.02993 23.2654 3.72804 23.092 4.87964 21.5099C6.92648 23.212 8.09499 23.9723 10.5257 24.5306L10.9213 25.2192C10.9473 22.7346 15.5589 22.9707 17.0527 23.7076C17.0644 23.7154 17.0748 23.7232 17.0852 23.7311C16.8133 23.1324 16.4281 22.5403 15.944 21.7355C18.2837 22.0746 20.825 22.1842 23.4704 21.9103C18.7912 20.2435 15.2869 19.847 10.471 22.2925L5.23357 15.672L11.7463 16.0933L14.6688 18.4358L15.0384 15.2664L11.7749 14.639L9.13338 2.76373L15.2908 5.62007L15.2115 8.5064ZM17.5407 35.3429C18.7157 35.3429 19.3702 35.6598 20.3344 36.0042C20.4606 35.7746 22.0013 35.2751 22.3878 35.172C21.9089 35.0899 21.0137 35.1538 20.2563 35.3625C20.4359 34.5277 20.475 34.1769 20.4958 33.2926C22.3461 32.4148 23.3169 31.1158 24.1197 29.3511L25.758 29.2663L25.7658 28.4316L28.8419 27.0543L28.5296 24.3871L27.7697 24.4706L27.5771 26.8378L25.4301 26.7648L24.9031 24.554L23.8308 24.6388L22.933 22.8011L21.8582 23.9476L21.3169 23.9632L21.093 25.8583L20.095 25.8401L20.0377 27.0634L17.4418 27.6334C17.5589 26.6422 17.5797 25.8987 17.5133 25.2792C17.4951 25.3601 17.4717 25.4396 17.4444 25.5166C16.8432 26.6043 13.7476 27.1352 11.4977 26.4791C11.4808 26.47 11.4652 26.4609 11.4496 26.4518C12.5348 28.7003 13.6578 31.6049 14.2785 34.0139C15.3572 31.7484 15.5914 30.6463 16.9746 28.4394C18.9083 28.1108 21.4964 28.1642 23.758 28.026C20.9954 30.2915 19.2101 32.0757 17.5407 35.3429ZM25.7046 39.9209L27.6226 41.0751L27.7476 41.0621L28.8107 39.9469L28.8679 39.8857C27.7007 39.7761 26.6259 39.7644 25.7046 39.9209ZM29.3871 39.3248L29.486 39.2179L32.1614 36.3028L32.9772 36.6015L33.1021 34.0856L32.4723 34.293L32.4632 34.2812C31.1841 36.0994 30.1874 37.7649 29.3871 39.3248ZM32.0104 33.6904L31.9948 33.6695C31.4275 32.9522 30.8432 32.3105 30.2069 31.871C29.9831 30.6958 29.9219 29.3759 29.4288 28.2634C29.417 28.2321 29.4066 28.2021 29.3936 28.1721L27.6239 33.5404L24.9291 34.3595L25.0215 33.3226L24.2967 34.2486C25.1776 34.7495 26.0013 35.2373 26.4671 35.6455L26.5843 37.0789L28.35 35.1447C29.5081 34.8121 30.7131 34.3647 32.0104 33.6904ZM25.8217 37.2067L25.4249 36.8872C25.3494 36.8246 25.2674 36.8063 25.1698 36.8832C24.8953 37.0358 24.5751 37.3006 24.3136 37.4715C24.2394 37.5406 24.2993 37.6319 24.3643 37.6423C24.756 37.7049 25.2206 37.8419 25.6096 37.864C25.6565 37.8667 25.7554 37.791 25.7749 37.6919L25.8217 37.2067ZM51.7371 40.2861L48.406 36.6667L48.2251 38.3088L45.3702 39.0261L44 31.344L44.9343 29.9902L46.0872 30.3111C45.4548 29.3942 44.851 29.0877 44.2342 28.1603L44.2941 30.3971L40.4749 32.617C40.4216 31.2527 40.3396 29.8559 40.2433 28.4616L36.38 27.6778C35.7996 27.743 35.2791 27.7521 34.8055 27.8238L35.9883 28.3064C39.5654 32.6561 42.6259 36.8624 46.2524 41.1756C46.4073 41.353 46.5049 41.2525 46.6467 41.1547C47.0917 40.7399 47.1581 40.633 47.542 40.1322L51.7371 40.2861ZM34.3253 27.6778L34.3539 27.1234C34.419 25.87 34.5634 25.0171 34.4476 23.8563C34.1809 24.5227 33.8712 25.7109 33.6786 26.9617L31.3975 27.0582C32.2941 27.2147 33.3155 27.3843 34.3253 27.6778ZM33.1256 32.2622L34.8237 31.8044C34.2368 30.8954 33.5784 30.0228 32.8068 29.2064L33.1256 32.2622ZM39.054 24.3388L38.1614 25.7996L39.0423 25.7853L40.1548 27.2421C40.0911 26.3904 40.0234 25.5427 39.9558 24.7093L39.054 24.3388ZM33.8842 20.9843C32.1275 20.4221 30.0416 20.1965 28.3292 20.46L28.2902 19.337L25.391 22.569C26.2069 22.6772 27.5368 22.5637 28.2889 22.539C28.2199 21.9064 28.1093 21.253 28.0234 20.8252C29.5563 20.9412 31.8126 21.459 33.8842 20.9843ZM50.3266 9.98544L51.0019 11.3236C50.7274 12.0527 47.8829 14.3873 47.1854 15.179L47.1087 15.2664L48.9343 15.2468L49.6304 16.4128C50.6402 15.9016 52.0208 15.6016 53.0787 15.3773C52.3448 14.5856 51.7515 13.7521 50.5999 13.0831C51.9141 10.5358 54.2759 7.85297 53.3936 4.69013C53.3221 4.48275 53.1867 4.30537 53.1984 4.55709L53.2245 6.46132L50.3266 9.98544ZM45.9636 16.6307C45.5732 17.155 45.2323 17.7236 45.0189 18.3666C44.8835 18.9027 45.3507 18.9209 46.1093 18.9314L47.1412 18.2962L47.1464 18.2975C46.8848 17.6206 46.4619 17.0911 45.9636 16.6307ZM56.4776 18.3601L55.0878 18.1606L54.9499 17.6884L54.0481 18.3445L54.0364 18.7553C54.9642 19.3526 55.6877 19.0357 56.4776 18.3601ZM41.6122 8.17381C43.1971 8.79464 43.823 9.21461 45.6799 8.74769L45.7098 8.73726C45.7762 7.97035 45.6994 6.82651 45.2531 6.45088L44.7079 7.9234C43.5407 7.93905 42.4932 8.01469 41.6122 8.17381ZM45.1334 10.6702C44.1184 10.901 42.9395 10.8854 41.9909 10.858L40.7599 17.8436C42.2199 15.5899 43.7983 13.1665 45.1334 10.6702ZM34.1874 10.9441C35.676 11.3419 36.6975 11.334 38.0599 11.1293L37.7775 9.45982L38.082 9.17288C37.5992 9.01115 36.9967 9.14679 36.5686 9.06593L36.8419 10.4184C35.9024 10.5697 35.0384 10.7354 34.1874 10.9441ZM38.1457 12.2183L37.6383 13.3687L36.7404 13.473L36.3383 17.4289L36.3982 17.4393L38.6467 17.1263L38.2407 16.7193L38.1457 12.2183ZM30.674 13.2904C31.6994 15.0225 32.7586 16.7246 33.8517 18.3966L34.9759 17.2606L33.3025 17.0506L32.4684 12.86C31.6331 12.9018 31.1165 13.0244 30.674 13.2904ZM20.8653 12.4296C21.4327 12.9396 22.0286 13.4156 22.661 13.8474L22.5114 15.9081C22.5413 15.912 22.5725 15.9172 22.5777 15.9068C23.4366 13.9973 23.5719 12.264 24.2238 10.2502L25.1633 10.2685C24.7794 9.61372 24.3162 8.8729 23.4756 8.4438L23.3012 12.6305C22.3643 12.4179 21.5459 12.3422 20.8653 12.4296ZM24.419 17.3728C25.7437 17.6206 27.0241 17.9727 28.2264 18.6053L27.9519 16.4533L27.4769 16.8772L25.7671 16.4885L25.4743 17.305L24.419 17.3728ZM14.9434 14.7538C14.0234 14.5817 13.0761 14.2556 12.1054 13.7769L10.959 4.84012L14.514 6.30611L14.6285 9.23679L16.7495 9.20809C18.2655 11.158 20.0182 12.7948 21.9167 14.0926L21.9961 15.5938C20.9447 15.9616 20.1444 16.4454 19.5524 17.0232C22.4932 17.2111 25.1477 17.9897 27.6304 19.4805L25.3793 21.6495C19.9076 19.6891 14.8445 19.1661 10.4424 20.9595L7.7866 17.4328C8.94079 17.0963 10.1119 16.7793 11.2661 16.6933L14.5491 19.1857L15.3585 19.1348L15.6877 13.8617L17.0072 13.7756L14.8432 11.9653L14.9434 14.7538ZM17.9532 16.9372L17.9245 14.6951L18.7846 15.6146C18.8458 15.7633 18.864 15.912 18.7912 16.0594L17.9532 16.9372ZM17.9896 17.8071C18.8979 17.7328 19.6812 17.8762 20.2837 18.3392C20.6259 18.6223 20.583 18.8583 20.2772 19.0644C19.8829 19.2992 18.9252 19.1009 18.0052 19.007L17.9896 17.8071ZM25.7372 14.9038C26.0221 13.8787 26.2928 12.8209 26.54 11.6992C27.0956 12.624 27.5172 13.6843 27.9024 14.7812L25.7372 14.9038ZM28.1028 15.4725L27.637 15.9172L25.3793 15.8598C25.2869 16.2055 25.1802 16.5276 25.0501 16.8159L22.5986 16.7793C23.4223 15.119 24.2017 13.0713 24.9499 10.7589L25.9675 10.6584L23.8894 7.71341C23.581 7.38604 23.1373 7.28431 22.5999 7.34039L23.0436 12.1818L21.0514 11.3914C20.4567 9.44417 19.7918 7.6495 18.9304 6.27611L20.0481 4.92489C22.3539 6.75086 24.4606 7.51386 26.3839 7.31039L33.2934 19.4374L34.985 18.0001L37.7371 17.9714C36.9707 19.0709 36.2811 20.1535 35.8595 21.176C33.8647 20.2187 31.5992 19.7635 29.1074 19.7244C28.8016 18.231 28.4828 16.7741 28.1028 15.4725ZM34.1015 12.6553C33.1516 12.3761 31.6057 12.3292 30.6975 12.4687L30.2524 10.6728C32.1015 10.5867 35.6994 12.3096 37.8933 12.0305L37.3624 13.0583L36.1015 13.0218L35.9297 17.0806L33.6357 16.6502L33.2635 12.7426L34.1015 12.6553ZM38.8172 15.9172L38.5738 9.44416L39.6565 9.43634C38.7274 9.09332 36.7235 8.29902 35.7723 8.43075L36.2524 10.0689L33.9519 10.0976L31.0137 6.73521L33.7228 5.34095C37.555 6.87346 42.4762 9.9424 45.1334 9.37765L44.6454 10.2685C43.4951 10.2698 42.4502 10.2098 41.4912 10.0963L40.4086 17.5671L38.8172 15.9172ZM45.218 4.89751L44.5296 7.22562L41.5485 7.39778L42.3513 4.12147C43.9987 4.18929 45.4639 4.19712 46.4229 4.03539L49.9206 10.6728C49.1516 12.7179 44.7703 16.0268 44.3448 18.6184C44.3045 18.874 44.3735 19.2587 44.5738 19.3579C45.11 19.3813 45.6148 19.4439 46.2082 19.5092L47.2973 18.8336L50.3787 18.9627C49.4704 19.5587 48.7066 20.143 48.2576 20.7013C45.5433 19.7009 42.4919 19.7296 41.2336 20.9021L40.7612 20.1978C41.8816 16.7793 44.635 13.2878 45.8504 10.528C46.3383 9.77545 46.5348 8.86638 46.5387 7.88427C46.5426 6.46784 46.0781 5.47138 45.218 4.89751ZM53.8907 15.5585C53.1113 15.1073 52.095 14.0195 51.4105 12.8C52.1614 11.4827 53.9688 8.06686 54.177 6.62174C54.2993 5.66702 54.2654 4.8662 53.8907 4.40971C53.4938 3.79671 53.0969 3.37543 52.5192 3.06893L52.6623 6.31654L50.6077 8.06034C50.3084 6.04917 49.9037 4.57535 49.3754 3.74975L51.6981 1.47903L57.2882 6.04786L57.3312 7.16823L59.6109 7.02476L57.7476 13.4326L55.5394 14.6247L56.1848 11.1906C55.4678 12.2614 54.7521 13.2761 53.9193 14.193C54.7001 15.1099 55.5329 15.7998 56.4281 16.2185L56.2277 17.5697L55.3676 17.541L55.2817 16.9658C54.5843 17.1719 53.8868 17.5358 53.1893 17.9714L53.1321 18.7762C53.7007 19.1714 54.2459 19.4687 54.7378 19.5952C55.4444 19.8626 56.095 19.6474 56.687 18.9196L59.067 16.0463L62.2212 15.4425L59.0956 21.5921C54.3643 21.1695 53.5745 19.59 51.1113 18.3445C49.7827 17.7836 48.6363 17.6597 47.728 18.1149L46.4671 16.405L48.4593 15.8442L49.4053 17.108C50.8796 16.3007 52.3761 15.7933 53.8907 15.5585ZM12.6311 25.9731C11.6903 25.4631 11.6578 24.6714 13.1776 24.0545C14.1887 23.645 15.4418 23.6319 16.4919 24.0636C17.4509 24.4575 17.1334 25.6262 16.2199 25.9027C14.6662 26.3722 13.5068 26.4478 12.6311 25.9731ZM14.026 25.5009L14.1978 24.4523L14.9148 24.438L14.7859 25.4866L14.026 25.5009ZM29.1633 26.7217C29.1464 24.8019 29.0488 22.9628 28.7261 21.3482L31.1555 21.9234L31.1126 24.1941L31.8439 24.1654L31.9727 22.0825C32.8926 22.046 33.6812 21.9742 34.1796 21.8242C33.7697 23.1702 33.4808 24.7849 33.2622 26.5509L31.7137 26.5652L31.7567 25.214L31.0254 25.3288L30.782 26.3631L29.1633 26.7217ZM34.9408 27.1534C35.015 25.7161 34.9811 24.2802 34.769 22.8429L39.2921 22.6277L38.6753 23.555L37.0488 23.8067L37.0124 24.554L38.3383 24.468L37.8647 25.3157L36.8965 25.5388L36.8029 26.2783L38.8809 26.2639L39.6981 27.456C38.0247 27.1665 36.4437 27.0778 34.9408 27.1534ZM41.0605 31.4966C40.9694 29.1868 40.838 26.8561 40.6454 24.4941L41.1711 24.3219C42.7157 24.8866 44.3474 25.2597 46.0065 25.2127L53.3025 33.1726L52.9304 35.3846C51.8386 35.4799 50.769 35.5829 49.8048 35.729C50.7794 35.9259 51.9297 36.0694 53.1594 36.1894C54.6519 38.4418 57.8699 40.5847 61.7606 42.6833L65.0006 39.0718L70.0651 37.8745L65.0956 44.6371C62.069 43.355 59.0566 43.0654 56.0546 43.5454C54.0364 41.7794 51.9479 39.3509 49.853 37.0697C49.11 36.3707 48.4268 35.8542 47.9128 35.8437C47.9545 36.6706 47.8686 37.4089 47.8074 38.1327L45.5901 38.5162C45.417 36.0798 45.1165 33.6604 44.5869 31.2749L44.9876 30.6997L47.1854 30.8915C46.0481 29.205 44.8445 27.5486 43.7736 25.8335L43.5055 25.9966L43.5628 30.2498L41.0605 31.4966ZM32.3461 32.8857L30.7977 31.6023C30.4645 30.1467 30.0468 28.716 29.5368 27.3113C31.6591 27.6269 33.6591 28.0743 35.3858 28.6038C39.0566 32.8348 42.609 37.4193 46.1939 41.9086C46.6675 41.7286 47.123 41.5042 47.6461 41.0947L51.2101 41.2773C50.5075 42.1133 49.9128 42.9507 49.4131 43.7867C46.2095 42.5281 43.149 41.4899 40.7365 41.4586L38.9967 37.6658L38.8445 37.9632C37.7814 37.8523 36.661 37.8575 35.4704 38.001L35.2219 37.5119C34.0338 38.7262 32.9369 40.1582 31.8777 41.679C28.6818 41.6073 26.0976 41.9203 24.3279 42.742C23.4522 41.8799 22.5504 41.0947 21.6239 40.3852L25.6278 40.3278L27.529 41.4195L28.4463 41.3242L28.3696 41.0373L32.1731 37.0528L33.2505 37.0802L34.0742 32.3888L35.555 31.9962L33.0514 28.6429C32.7807 28.5947 32.4971 28.5986 32.2004 28.652L32.3461 32.8857ZM35.987 32.647C36.838 33.9226 37.62 35.3142 38.3956 36.7176L35.5472 36.7267L35.987 32.647ZM47.9128 31.7079C48.5062 32.3705 48.9694 33.0865 49.4509 33.7295C50.108 34.6047 49.6383 35.0364 49.0787 35.0416H47.9987L47.9128 31.7079ZM28.851 27.9438C28.3162 29.6315 27.8256 31.3506 27.3819 33.1074L25.4066 34.036L25.5211 32.1735C25.015 32.7944 24.4294 33.3187 23.8074 33.8L23.7554 34.413L25.9714 35.7003L25.9349 36.7176L25.404 36.2781C24.691 36.6446 23.9896 37.0919 23.2999 37.6202C23.9714 38.001 24.8822 38.2305 26.1757 38.2175L28.6181 35.3299L30.9408 34.726L28.92 39.2374L25.1021 39.3587L25.1672 38.9596C23.5511 38.9244 21.5537 37.1128 19.9037 36.8532L19.3038 37.6149C18.3396 37.6619 17.3103 37.7741 16.3006 37.9136L17.3611 35.9416C18.5049 35.8633 19.6825 36.0498 20.8953 36.5024C21.542 35.9703 22.4489 35.562 23.4873 35.2151C22.972 34.8995 22.0416 34.7834 20.9954 34.7234C21.11 34.2812 21.1685 33.8495 21.1555 33.4335C22.5751 32.5909 23.8087 31.3819 24.8211 29.9772L26.1679 29.7359L26.177 28.9859L28.851 27.9438ZM22.3396 28.489C18.6558 31.9688 15.9662 36.025 14.8146 40.0409C12.3539 40.0526 10.2407 40.35 8.60117 41.1899C7.12557 39.4539 5.62915 38.241 4.11451 37.461L10.2277 37.418C10.743 38.1027 11.3897 38.7875 12.134 39.4722L12.6792 39.45L14.056 35.3546C13.784 35.4629 13.5107 35.6272 13.2388 35.8503C12.3344 35.3403 11.5394 35.0742 10.7872 34.9086C8.68445 29.762 6.5309 25.4162 4.46584 24.5632C4.78074 26.0005 4.9434 27.4939 4.95381 29.0459C4.26285 28.3964 3.60442 27.8864 2.99024 27.5799L1.81522 24.9505C3.13338 24.3519 4.26155 23.6815 4.96942 22.8533C6.38517 23.8889 7.90631 24.5475 9.51334 24.8932C11.5719 27.9386 13.041 31.0871 13.7996 34.3621L14 34.6856L14.4229 34.6203C15.4483 32.407 16.501 30.4024 17.6409 29.0316L22.3396 28.489ZM7.55237 43.7671C9.97267 43.0198 11.6799 43.1163 14.4411 43.3472C19.2284 43.6602 22.4281 44.4023 27.6669 45.3544C34.8341 46.6574 39.8829 47.9303 47.1672 48.9998C52.5686 49.7941 56.8523 49.6063 61.8686 46.7774L71.2557 51.1388C67.9961 55.1194 57.9076 57.5049 47.7931 54.9277C40.8705 53.163 33.7163 50.1645 26.7339 47.9969C21.6864 46.4304 15.7632 43.7763 9.48992 44.6984C7.83995 44.941 5.95446 45.6035 4.27716 46.7174L7.55237 43.7671ZM7.45999 44.5693C8.19128 43.8571 10.5023 43.5167 12.1015 43.5545C30.2902 43.981 50.7521 55.2042 62.285 48.0895L68.1353 51.6162C52.0364 61.0317 36.9759 48.0229 14.3032 44.161C11.987 43.7658 8.88874 44.0019 7.45999 44.5693ZM25.6422 26.3213L25.1971 23.9932L24.0364 24.001L23.9076 22.8298C25.4808 22.9837 26.9785 23.0972 28.2082 23.0594L28.2941 23.9789L27.1191 24.0363L27.1334 26.3787L25.6422 26.3213ZM17.8855 26.9865C17.9115 25.111 17.5914 23.5472 16.8536 22.3603C18.6025 22.509 20.3084 22.629 21.8855 22.6616L21.3546 23.5954L19.5771 23.6098L19.6487 24.4001H20.6949L20.6805 25.3914L19.5914 25.4488L19.4912 26.8861L17.8855 26.9865Z" fill="#9D9D9D"/>
</svg>
