<svg width="54" height="91" viewBox="0 0 54 91" fill="none" xmlns="http://www.w3.org/2000/svg">
<path fill-rule="evenodd" clip-rule="evenodd" d="M14.1427 91C13.3413 91 12.5151 91 11.7137 91C11.5719 90.6283 11.5719 90.6283 11.5534 90.6283C11.5534 90.7522 11.5534 90.8761 11.5534 91C10.0183 91 8.4585 91 6.9049 91C6.8864 90.7893 6.8864 90.5787 6.8864 90.3866C6.65829 90.5787 6.43019 90.7708 6.20208 90.9814C4.14294 90.9814 2.07763 90.9814 0 91C0 89.7856 0 88.5774 0 87.3816C0.172622 87.3816 0.369908 87.3816 0.542531 87.3816C0.542531 85.8203 0.524036 84.2713 0.524036 82.7285C0.351414 82.7099 0.172622 82.7099 0 82.7099C0 81.5141 0 80.3059 0 79.1101C2.05914 79.1101 4.14294 79.1101 6.20208 79.1101C6.43019 79.3208 6.6583 79.5315 6.89873 79.7235C6.89873 79.5315 6.89873 79.3208 6.89873 79.1101C8.97637 79.1101 11.0417 79.1287 13.1193 79.1287C13.4522 79.4261 13.8036 79.7235 14.1304 80.0395C14.1304 79.7235 14.1489 79.4261 14.1489 79.1101C16.6827 79.1101 19.2351 79.1101 21.7689 79.1101C21.7689 80.5848 21.7689 82.0594 21.7689 83.534C21.4545 83.534 21.1401 83.534 20.8257 83.534C20.8257 84.5501 20.8257 85.5538 20.8257 86.5576C21.0723 86.5576 21.3127 86.5576 21.5593 86.5576C22.0464 84.0792 22.5396 81.6071 23.0451 79.1287C23.6739 79.1101 24.3028 79.1101 24.9316 79.0915H25.1782C25.8071 79.1101 26.4544 79.1101 27.1017 79.1101C27.6442 81.8673 28.1868 84.6059 28.7293 87.363C28.7971 87.363 28.8526 87.3816 28.9019 87.3816C28.9019 85.8203 28.9019 84.2713 28.9019 82.7285C28.7293 82.7285 28.5505 82.7285 28.3779 82.7285C28.3779 81.5141 28.3779 80.3245 28.3779 79.1101C40.893 79.1101 40.893 79.1101 46.1888 79.1101C46.5218 79.389 46.8362 79.674 47.1506 79.9714C47.1506 79.674 47.1506 79.389 47.1506 79.1101C49.4378 79.1101 51.7128 79.1101 53.9815 79.1101C53.9815 79.7979 53.9815 80.498 53.9815 81.1796C51.8299 86.4832 51.8299 86.4832 51.8176 86.5514C52.5512 86.5514 53.2664 86.5514 54 86.5514C54 88.026 54 89.5006 54 90.9938C51.6388 90.9938 49.2652 90.9938 46.904 90.9938C46.904 90.7831 46.8855 90.5725 46.8855 90.3618C46.6574 90.5725 46.4293 90.7646 46.2012 90.9752C36.2137 91 36.2137 91 14.1427 91ZM23.1622 78.9366C19.6666 78.9366 16.171 78.9181 12.6754 78.8809C9.14282 78.8995 5.4931 79.0544 2.03448 78.2117C1.87419 78.156 0.826117 77.9143 1.03573 77.5798C1.36864 77.2824 1.89268 77.2452 2.29341 77.1584C3.15036 77.0345 4.00731 76.9478 4.88275 76.892C6.80626 76.8548 8.72977 76.892 10.6471 76.9106C10.6656 76.9106 10.6656 76.892 10.6841 76.892C10.6841 76.7495 10.6286 76.6999 10.5978 76.576C10.5423 75.8759 11.1033 75.3492 11.5595 74.8907C11.9788 74.5066 11.9788 74.5066 12.8357 73.7507C13.483 73.1001 13.9886 72.4496 14.4263 71.6627C15.7025 68.9241 17.0465 66.1856 18.0637 63.3231C18.3596 62.3379 18.6432 61.3404 18.7974 60.3181C18.9022 59.4073 18.9207 58.4717 18.8528 57.5609C18.7665 56.8732 18.6432 56.2102 18.5199 55.5225C17.7308 51.8545 16.9293 48.1804 15.9676 44.562C14.938 40.9436 13.6803 37.381 12.5398 33.7936C11.615 30.6832 10.7766 27.4366 11.054 24.1528C11.091 23.905 11.1218 23.6633 11.1588 23.4155C11.615 21.3461 12.4843 19.413 13.0823 17.3745C13.3597 16.2159 13.6433 15.0573 13.6433 13.8615C13.52 12.3868 13.2426 10.9618 12.8419 9.54294C12.6693 8.94814 12.4411 8.36572 12.213 7.78951C11.726 6.7548 11.1835 5.87498 10.3635 5.08191C8.94554 3.9047 7.25014 3.13022 5.85683 1.94061C5.78902 1.85387 5.71504 1.77952 5.64722 1.69278C5.54242 1.2157 5.43761 0.676655 5.78902 0.267727C6.18975 -0.0482619 6.64596 -0.0110876 7.11451 0.0198917C9.83948 0.391644 12.6014 1.28385 14.7531 3.05587C16.3621 4.54907 17.6198 6.35826 18.7912 8.20463C20.2092 10.714 21.2757 13.4216 22.5334 16.0176C22.706 16.3336 22.8848 16.6682 23.0574 16.9842C23.5445 17.7773 24.0685 18.496 24.7528 19.1589C25.1721 19.5121 25.1721 19.5121 25.4002 19.6856C26.2016 20.2122 26.9908 20.584 27.897 20.8814C28.1436 20.9681 28.4026 21.0425 28.6677 21.1106C30.2398 21.4452 31.781 21.5319 33.3839 21.4266C33.6799 21.3894 33.9635 21.3585 34.2594 21.3213C36.2137 20.9495 38.0509 20.3733 39.8881 19.5988C41.1828 18.9854 42.4775 18.3535 43.4885 17.3311C43.5933 17.2072 43.6981 17.0647 43.8214 16.947C44.0311 16.5938 44.2222 16.2593 44.3455 15.8751C44.364 15.7698 44.3825 15.6645 44.4133 15.5591C44.3948 14.8714 44.29 14.2394 44.0311 13.6074C43.5933 12.7648 43.0015 12.0461 42.422 11.3088C42.0027 10.5157 43.3467 10.4289 43.803 10.5033C45.0791 11.0114 46.1827 12.0151 47.0026 13.087C47.1074 13.2605 47.2122 13.4216 47.3355 13.595C47.9274 14.7908 48.1062 15.9123 47.8781 17.232C47.8411 17.3745 47.8103 17.5108 47.7733 17.6533C47.4219 18.6385 46.9533 19.4068 46.3245 20.2184C45.9052 20.6769 45.4675 21.1292 45.0298 21.5505C43.7351 22.6224 42.3727 23.62 41.0472 24.6609C40.9054 24.8034 40.7512 24.9273 40.6094 25.0636C40.0299 25.7327 39.5614 26.3957 39.1236 27.1516C37.5515 30.3301 37.1508 33.8617 36.8857 37.3562C36.7809 39.1096 36.7254 39.7974 36.6761 40.6772C36.6761 41.6251 36.6761 42.5731 36.6761 43.5397C36.7439 44.4505 36.7809 45.3674 36.9227 46.2782C37.009 46.4889 37.0953 46.5942 37.2556 46.7553C37.6564 47.1271 38.0571 47.5112 38.464 47.8768C38.8462 48.2795 38.8462 48.2795 39.1976 48.7008C39.7771 49.5249 40.1594 50.3179 40.4923 51.2659C40.7389 52.059 40.9115 52.8459 41.0348 53.6699C41.0903 54.3019 41.0903 54.3019 41.1026 54.8099C41.1211 56.458 40.9978 58.0442 40.7512 59.6737C40.5231 60.7952 40.5231 60.7952 40.3135 61.7803C39.6169 64.8039 38.5688 67.7531 37.5331 70.6652C37.1816 71.5636 36.7994 72.4558 36.4665 73.3728C36.2939 74.0047 36.2384 74.3765 36.7624 74.8474C37.8105 75.6033 39.0867 75.9564 40.2765 76.4087C40.856 76.6566 41.3924 76.9168 41.8671 77.3567C42.1137 77.6541 42.6562 78.3047 42.2863 78.6764C41.9041 78.7632 41.5712 78.7818 41.1828 78.8003C36.0103 78.8375 30.8563 78.8685 25.7023 78.9243H23.1622V78.9366ZM0.807625 90.1945C0.807625 89.5254 0.807625 88.8624 0.807625 88.2119C0.980247 88.1933 1.15904 88.1933 1.35016 88.1933C1.35016 86.1053 1.35016 83.9987 1.35016 81.9045C1.17753 81.9045 0.998743 81.9045 0.807625 81.9045C0.807625 81.2353 0.807625 80.5848 0.807625 79.9218C2.50302 79.9218 4.19842 79.9218 5.89382 79.9218C6.29455 80.2935 6.69529 80.6591 7.10218 81.0123C7.10218 82.0656 7.10218 83.1375 7.10218 84.1908C6.87408 84.4696 6.66446 84.736 6.43635 85.0148C6.41786 85.0334 6.41786 85.052 6.41786 85.0706C6.64597 85.3494 6.87408 85.6344 7.10218 85.9132C7.10218 86.9851 7.10218 88.0384 7.10218 89.1103C6.70145 89.4634 6.30072 89.8104 5.89382 90.1822C4.19842 90.176 2.50302 90.176 0.807625 90.1945ZM7.71252 90.1945C7.71252 89.5254 7.71252 88.8624 7.71252 88.2119C7.88514 88.1933 8.06394 88.1933 8.23656 88.1933C8.23656 86.1053 8.23656 84.0111 8.23656 81.9045C8.06394 81.9045 7.88514 81.9045 7.71252 81.9045C7.71252 81.2353 7.71252 80.5848 7.71252 79.9218C9.40792 79.9218 11.1033 79.9218 12.8172 79.9218C13.2179 80.2935 13.6063 80.6405 14.0071 80.9937C14.0071 82.2762 14.0071 83.5402 14.0256 84.8041C13.6063 85.1883 13.2056 85.5786 12.7864 85.9628C12.7864 85.9814 12.7864 85.9999 12.7864 86.0185C13.0638 86.7373 13.3474 87.4746 13.6248 88.1933C13.8715 88.1933 14.1304 88.1933 14.377 88.2119C14.377 88.8624 14.377 89.5316 14.377 90.1945C13.6803 90.1945 12.9775 90.1759 12.2809 90.1759C11.7383 88.8067 11.2143 87.4374 10.6903 86.0681C10.53 86.0495 10.3943 86.0495 10.234 86.0495C10.234 86.7682 10.234 87.4869 10.234 88.1933C10.4067 88.1933 10.5855 88.1933 10.7766 88.2119C10.7766 88.8624 10.7766 89.5316 10.7766 90.1945C9.74084 90.1945 8.7236 90.1945 7.71252 90.1945ZM14.9627 90.1945C14.9627 89.5254 14.9627 88.8624 14.9627 88.2119C15.1353 88.2119 15.3141 88.2119 15.4867 88.2119C15.4867 86.1053 15.4867 84.0173 15.4867 81.9045C15.3141 81.9045 15.1353 81.9045 14.9627 81.9045C14.9627 81.2353 14.9627 80.5848 14.9627 79.9218C16.954 79.9218 18.9638 79.9218 20.9736 79.9218C20.9736 80.8512 20.9736 81.7806 20.9736 82.7347C20.3078 82.7347 19.6481 82.7347 18.9823 82.7347C18.9823 82.4559 18.9823 82.1895 18.9823 81.9107C18.4768 81.9107 17.9712 81.9107 17.4595 81.9107C17.4595 82.6294 17.4595 83.3481 17.4595 84.073C18.3165 84.073 19.1549 84.073 20.0119 84.073C20.0119 84.7236 20.0119 85.3927 20.0119 86.0557C19.1549 86.0557 18.3165 86.0557 17.4595 86.0557C17.4595 86.7744 17.4595 87.4931 17.4595 88.2181C17.9651 88.2181 18.4706 88.2181 18.9823 88.2181C18.9823 87.9392 18.9823 87.6728 18.9823 87.394C19.6481 87.394 20.3078 87.394 20.9736 87.394C20.9736 88.3234 20.9736 89.2528 20.9736 90.2069C18.9638 90.1945 16.954 90.1945 14.9627 90.1945ZM21.5716 90.1945C21.5716 89.5254 21.5716 88.8624 21.5716 88.2119C21.7319 88.1933 21.9046 88.1933 22.0587 88.1933C22.6197 85.4361 23.1622 82.679 23.7171 79.9218C24.6234 79.9218 25.5173 79.9218 26.4236 79.9218C26.9661 82.679 27.5271 85.4361 28.0635 88.2119C28.2361 88.2119 28.4149 88.2119 28.5875 88.2119C28.5875 88.8624 28.5875 89.5316 28.5875 90.1945C27.5764 90.1945 26.5592 90.1759 25.5481 90.1759C25.5296 89.5068 25.5296 88.8562 25.5296 88.2119C25.7023 88.2119 25.881 88.2119 26.0537 88.2119C25.9982 87.964 25.9674 87.7348 25.9119 87.4931C25.3508 87.4931 24.7775 87.4931 24.2165 87.5117C24.0932 88.057 24.0932 88.057 24.0932 88.2119C24.2535 88.2119 24.4261 88.2119 24.5987 88.2119C24.5987 88.8624 24.5987 89.5316 24.5987 90.1945C23.6 90.1945 22.5827 90.1945 21.5716 90.1945ZM29.1917 90.1945C29.1917 89.5254 29.1917 88.8624 29.1917 88.2119C29.3643 88.2119 29.5431 88.2119 29.7157 88.2119C29.7157 86.1053 29.7157 84.0173 29.7157 81.9045C29.5431 81.9045 29.3643 81.9045 29.1917 81.9045C29.1917 81.2353 29.1917 80.5848 29.1917 79.9218C30.2028 79.9218 31.22 79.9218 32.2311 79.9218C32.2311 80.591 32.2311 81.2415 32.2311 81.9045C32.0585 81.9045 31.8612 81.9045 31.6885 81.9045C31.707 82.6046 31.707 83.3109 31.707 84.0111C32.2496 83.3233 32.8106 82.6232 33.3655 81.9231C33.2976 81.9231 33.2237 81.9045 33.1558 81.9045C33.1558 81.2353 33.1558 80.5848 33.1558 79.9218C34.2594 79.9218 35.3383 79.9218 36.4418 79.9218C36.4418 80.591 36.4418 81.2415 36.4418 81.9045C36.2507 81.9045 36.0596 81.9231 35.8808 81.9231C35.1965 82.7657 34.5368 83.6083 33.8895 84.4696C33.8895 84.4882 33.8895 84.5067 33.8895 84.5253C34.5183 85.7397 35.1472 86.9665 35.7945 88.1933C36.0041 88.1933 36.2137 88.1933 36.4418 88.2119C36.4418 88.8624 36.4418 89.5316 36.4418 90.1945C35.3383 90.1945 34.2594 90.1945 33.1558 90.1945C33.1558 89.5254 33.1558 88.8624 33.1558 88.2119C33.2976 88.2119 33.4209 88.2119 33.5566 88.2119C33.2052 87.5427 32.8722 86.8798 32.527 86.2106C32.2496 86.5638 31.966 86.9293 31.707 87.2825C31.707 87.5799 31.6885 87.8959 31.6885 88.2119C31.8612 88.2119 32.0585 88.2119 32.2311 88.2119C32.2311 88.8624 32.2311 89.5316 32.2311 90.1945C31.22 90.1945 30.2028 90.1945 29.1917 90.1945ZM37.0337 90.1945C37.0337 89.5254 37.0337 88.8624 37.0337 88.2119C37.2063 88.2119 37.3851 88.2119 37.5762 88.2119C37.5762 86.1053 37.5762 84.0173 37.5762 81.9045C37.3851 81.9045 37.2063 81.9045 37.0337 81.9045C37.0337 81.2353 37.0337 80.5848 37.0337 79.9218C38.0448 79.9218 39.062 79.9218 40.0916 79.9218C40.0916 80.591 40.0916 81.2415 40.0916 81.9045C39.9004 81.9045 39.7217 81.9231 39.549 81.9231C39.549 84.0111 39.549 86.1053 39.549 88.2119C39.7217 88.2119 39.9004 88.2119 40.0916 88.2119C40.0916 88.8624 40.0916 89.5316 40.0916 90.1945C39.062 90.1945 38.0509 90.1945 37.0337 90.1945ZM40.6896 90.1945C40.6896 89.5254 40.6896 88.8624 40.6896 88.2119C40.8622 88.1933 41.041 88.1933 41.2136 88.1933C41.2136 86.1053 41.2136 84.0111 41.2136 81.9231C41.041 81.9231 40.8622 81.9045 40.6896 81.9045C40.6896 81.2353 40.6896 80.5848 40.6896 79.9218C42.422 79.9218 44.1482 79.9218 45.8806 79.9218C46.2998 80.2935 46.7005 80.6591 47.1198 81.0123C47.1198 83.7199 47.1198 86.4027 47.1198 89.1103C46.7005 89.4634 46.2998 89.8104 45.8991 90.1822C44.1482 90.176 42.422 90.176 40.6896 90.1945ZM47.7301 90.1945C47.7301 89.8786 47.7301 89.5626 47.7301 89.2466C50.3009 82.8896 50.3009 82.8896 50.6832 81.9045C50.4366 81.9045 50.1961 81.9231 49.968 81.9231C49.968 82.1895 49.9495 82.4497 49.9495 82.7285C49.2837 82.7285 48.6364 82.7285 47.9767 82.7285C47.9767 81.7806 47.9767 80.8512 47.9767 79.9156C49.7091 79.9156 51.4353 79.9156 53.1862 79.9156C53.1862 80.2873 53.1862 80.6343 53.1862 81.0061C52.2245 83.3977 51.2627 85.8017 50.3009 88.1871C50.5969 88.1871 50.8928 88.1871 51.2072 88.2057C51.2072 87.9269 51.2072 87.6604 51.2072 87.3816C51.873 87.3816 52.5327 87.3816 53.1985 87.3816C53.1985 88.311 53.1985 89.2404 53.1985 90.1945C51.386 90.1945 49.5488 90.1945 47.7301 90.1945ZM3.34148 88.2057C3.34148 87.4869 3.34148 86.7682 3.34148 86.0433C3.93332 86.0433 4.53134 86.0433 5.14168 86.0433C5.14168 86.762 5.12319 87.4684 5.12319 88.1871C4.53134 88.1933 3.93949 88.1933 3.34148 88.2057ZM43.1864 88.2057C43.1864 86.0991 43.1864 84.0111 43.1864 81.8983C43.8523 81.8983 44.4996 81.8983 45.1408 81.8983C45.1408 84.0049 45.1408 86.0929 45.1408 88.2057C44.4996 88.2057 43.8523 88.2057 43.1864 88.2057ZM4.1491 87.3816C4.1491 87.2081 4.1491 87.0285 4.1491 86.8736C4.20459 86.8736 4.25391 86.8736 4.3094 86.8736C4.3279 87.0347 4.32789 87.2081 4.32789 87.3816C4.25391 87.3816 4.19842 87.3816 4.1491 87.3816ZM14.1797 87.3816C14.0194 86.9975 13.8653 86.6071 13.7235 86.2416C13.7235 86.2044 13.7235 86.2044 13.742 86.1858C14.0379 85.8884 14.3523 85.591 14.6667 85.306H14.6852C14.6852 85.9938 14.6852 86.6753 14.6852 87.3754C14.5126 87.3816 14.3338 87.3816 14.1797 87.3816ZM36.2877 87.3816C35.813 86.4522 35.326 85.5229 34.8389 84.5873C34.8389 84.5687 34.8389 84.5501 34.8389 84.5315C34.8944 84.4943 34.8944 84.4943 36.2692 82.7409C36.4295 82.7223 36.6021 82.7223 36.7563 82.7223C36.7563 84.2651 36.7563 85.8141 36.7563 87.3754C36.6021 87.3816 36.4418 87.3816 36.2877 87.3816ZM40.3752 87.3816C40.3752 85.8388 40.3752 84.2713 40.3752 82.7285C40.3752 82.7285 40.3937 82.7285 40.4122 82.7285C40.4122 84.2713 40.4122 85.8203 40.4122 87.3816C40.3937 87.3816 40.3752 87.3816 40.3752 87.3816ZM44.0064 87.3816C44.0064 85.8388 44.0064 84.2713 44.0064 82.7285C44.1112 82.7285 44.216 82.7285 44.3393 82.7285C44.3393 84.2713 44.3393 85.8203 44.3393 87.3816C44.2345 87.3816 44.1112 87.3816 44.0064 87.3816ZM47.9397 86.5576C47.9397 85.5538 47.9397 84.5377 47.9397 83.534C48.3405 83.534 48.7412 83.5526 49.1481 83.5526C47.9582 86.5576 47.9582 86.5576 47.9397 86.5576ZM24.6295 85.5043C24.7713 84.767 24.9255 84.0296 25.0672 83.2738C25.2275 84.0296 25.3632 84.767 25.5235 85.5043C25.2214 85.5043 24.9254 85.5043 24.6295 85.5043ZM3.34148 84.0606C3.34148 83.3419 3.34148 82.6232 3.34148 81.8983C3.93332 81.8983 4.53134 81.9169 5.12319 81.9169C5.12319 82.617 5.14168 83.3419 5.14168 84.0606C4.53134 84.0606 3.93949 84.0606 3.34148 84.0606ZM10.2279 84.0606C10.2279 83.3419 10.2279 82.6232 10.2279 81.8983C10.8382 81.8983 11.4362 81.8983 12.0466 81.8983C12.0466 82.617 12.0466 83.3357 12.0466 84.0606C11.4362 84.0606 10.8382 84.0606 10.2279 84.0606ZM4.1491 83.2552C4.1491 83.0817 4.1491 82.902 4.1491 82.7285C4.20459 82.7285 4.25391 82.7285 4.32172 82.7285C4.32172 82.8896 4.32172 83.0631 4.32172 83.2366C4.25391 83.2366 4.19842 83.2366 4.1491 83.2552ZM11.0478 83.2552C11.0478 83.0817 11.0478 82.902 11.0478 82.7285C11.1033 82.7285 11.1711 82.7285 11.239 82.7285C11.239 82.8896 11.239 83.0631 11.2205 83.2366C11.1711 83.2366 11.1033 83.2366 11.0478 83.2552ZM35.5171 77.9515C34.6601 77.8957 33.8217 77.8648 32.9832 77.809C32.8599 77.7904 32.7366 77.7718 32.6133 77.7532C32.2989 77.6479 32.0893 77.6107 31.929 77.2947C31.7687 76.6999 31.7687 76.1175 31.7687 75.5227C31.855 74.4137 32.0461 73.3108 32.2557 72.2017C32.8168 69.8101 33.3901 67.4061 33.9696 65.0207C34.8266 61.5758 34.8266 61.5758 35.0362 60.665C35.3321 59.1718 35.6465 57.66 35.8931 56.1483C36.1397 54.2151 36.5405 52.0714 35.961 50.1568C35.6959 49.562 35.4184 49.1717 34.8574 48.8557C34.7156 48.7876 34.58 48.7318 34.4382 48.6822C33.5997 48.5397 32.8661 48.5955 32.0276 48.7504C31.781 48.8185 31.5406 48.8929 31.294 48.961C30.5233 49.2584 29.7897 49.6302 29.0746 50.0515C28.828 50.225 28.532 50.3675 28.3594 50.6153C28.1868 50.7207 28.2176 50.9995 28.2176 51.1792C28.3409 51.4456 28.4272 51.5137 28.6923 51.427C29.7959 50.9189 30.9302 50.2126 32.1879 50.4604C32.8168 50.6525 33.1312 51.0738 33.3963 51.6748C33.4333 51.7802 33.4641 51.8855 33.5011 51.9722C33.8525 53.5336 33.7107 55.1135 33.5566 56.6997C33.2915 58.6514 32.9462 60.5969 32.49 62.5114C32.1386 63.67 31.5653 65.1632 30.3261 65.6217C30.2028 65.6589 30.098 65.6775 29.9747 65.7085C27.8415 65.7766 26.1831 63.7568 25.2399 62.0529C24.87 61.3156 24.611 60.5597 24.3829 59.7666C24.1363 58.6762 24.0315 57.6043 24.1055 56.4828C24.124 56.2536 24.1918 55.9748 24.161 55.7455C23.8836 55.5163 23.6863 55.7455 23.4951 55.9562C23.4397 56.0987 23.3534 56.235 23.2855 56.3775C23.2177 56.7307 23.1129 57.0776 23.0081 57.4122C22.9526 57.9946 22.8478 58.7443 22.817 59.0789C22.817 59.4321 22.8725 59.779 22.9403 60.1136C22.9773 60.4978 22.9958 60.8695 23.0081 61.2536C22.9896 61.8361 22.9033 62.4123 22.78 62.9947C22.4841 64.2091 22.0279 65.3305 21.5038 66.4706C20.8935 67.685 20.2092 68.8932 19.5618 70.1075C18.933 71.3529 18.3535 72.6355 17.8479 73.9552C17.7616 74.234 17.6753 74.5376 17.5828 74.8164C17.5273 75.343 18.0699 75.6404 18.4768 75.8201C19.0871 76.0494 19.7529 76.26 20.3263 76.6132C20.4311 76.7185 20.5729 76.8239 20.6592 76.985C20.6222 77.3009 20.277 77.3691 20.0119 77.493C18.1438 77.6665 16.2388 77.6541 14.3523 77.5302C14.0009 77.4744 13.7728 77.4249 13.1625 77.3195C12.8296 77.177 12.0774 76.9354 12.4966 76.4583C12.9713 76.0556 13.5262 75.7396 14.0502 75.3864C14.2598 75.1943 14.4695 75.0333 14.6791 74.8598C14.8024 74.7173 14.9257 74.581 15.0613 74.4385C15.3387 74.0667 15.5484 73.6454 15.758 73.2241C17.0156 69.8721 18.3103 66.5139 19.605 63.1806C19.7468 62.7592 19.8824 62.3565 20.0242 61.9538C20.3016 60.9872 20.5297 60.0393 20.6715 59.0355C20.727 58.261 20.7085 57.4928 20.653 56.6997C20.4619 54.8905 20.0735 53.0813 19.7961 51.2721C19.5495 49.0416 19.4447 46.7925 19.1673 44.5806C18.9576 43.3662 18.6617 42.1766 18.3103 40.9994C17.5212 38.6077 16.5779 36.2719 15.8443 33.8865C15.2833 31.4267 14.9503 28.8988 14.6729 26.4019C14.6174 25.7142 14.6174 25.7142 14.5681 24.6299C14.5681 22.7525 14.6544 20.869 15.1476 19.0474C15.5175 17.9569 15.9367 16.885 16.0046 15.745C16.0046 15.3918 15.9861 15.0449 15.9491 14.7103C15.5977 12.9011 14.9503 11.1291 14.34 9.40663C13.8838 8.35333 13.3104 7.30004 13.1193 6.16C13.1193 5.8626 13.0823 5.50943 13.4892 5.50943C14.2414 5.82542 14.7654 6.49458 15.3079 7.07079C16.4608 8.49584 17.5273 9.97045 18.4706 11.5504C19.7961 14.0473 20.9181 16.6806 22.3299 19.1217C22.6074 19.5802 22.9095 20.0201 23.2362 20.4415C23.6554 20.9309 24.0747 21.3027 24.5802 21.6683C25.1412 22.04 25.1412 22.04 25.9242 22.5109C26.6578 23.1243 26.7442 23.9174 26.7811 24.8653C26.8366 25.1317 26.9044 25.1441 27.1141 25.3052C28.1436 25.8319 29.389 25.869 30.5233 25.869C30.9611 25.8505 32.1818 25.8009 32.3236 25.2185C32.3236 24.8343 32.2187 24.444 32.2187 24.0784C32.2557 23.8678 32.3421 23.6943 32.4654 23.5332C33.2175 22.9694 34.1792 23.0066 35.0855 22.8641C36.0843 22.6534 37.0583 22.356 38.0386 22.0028C38.6489 21.755 39.2593 21.5134 39.8881 21.2469C40.2704 21.123 41.3369 20.7017 41.5835 21.2283C41.5835 21.9285 40.8314 22.6534 40.3628 23.0871C39.7833 23.5766 39.173 24.0351 38.5996 24.5122C37.903 25.1255 37.3234 25.8133 36.8364 26.6002C36.7501 26.7427 36.6453 26.8976 36.5713 27.0587C36.0288 28.1677 35.7144 29.252 35.5047 30.4478C35.3814 31.2409 35.3814 31.2409 35.3321 31.7799C35.2273 33.5705 35.2951 35.3301 35.4554 37.1207C35.4924 38.4405 35.5417 39.7726 35.4739 41.0737C35.3691 42.127 35.3691 42.127 35.2643 42.8829C35.1965 43.0068 35.1595 43.1307 35.1225 43.267C35.067 43.3352 35.067 43.3352 35.0362 43.391C34.9314 43.391 34.8081 43.4095 34.7033 43.3724C34.617 43.2113 34.5307 43.0564 34.4258 42.8953C33.4148 41.2596 32.2927 39.661 31.6146 37.8395C31.5468 37.7837 31.4543 37.6784 31.368 37.666C31.3495 37.7217 31.3495 37.7713 31.331 37.8271C31.368 39.6858 31.818 41.5694 32.3605 43.3414C32.5517 43.868 32.7613 44.3947 33.0079 44.9213C33.3778 45.6401 33.76 46.3588 34.2162 47.0465C34.8266 47.8892 35.8562 48.3477 36.6453 48.9982C37.4159 49.7355 37.903 50.4914 38.2729 51.5075C38.7969 53.261 38.8154 55.1073 38.8154 56.9351C38.7784 57.9512 38.6736 58.9736 38.5503 59.9711C38.4825 60.411 38.4085 60.8509 38.3407 61.2722C37.903 63.4842 37.3111 65.6465 36.6268 67.7903C35.8931 69.965 35.0547 72.146 34.4752 74.3765C34.4382 74.7297 34.3025 75.0952 34.5985 75.3431C35.6465 75.9255 36.8179 76.3096 37.9708 76.6628C38.3715 76.8239 38.8092 76.9602 39.1606 77.2452C39.3024 77.4372 39.2161 77.524 39.0188 77.6293C37.9276 78.0011 36.6514 77.9329 35.5171 77.9515ZM24.8576 77.3381C23.9637 77.3009 23.0389 77.2514 22.1512 77.0903C21.9909 76.985 22.0463 76.9478 22.1512 76.8239C22.2066 76.6504 22.3238 76.2291 22.0648 76.1547C21.8737 75.7706 21.2079 75.5413 20.8257 75.3988C20.4434 75.2935 20.0365 75.1882 19.6543 75.0828C19.2844 74.804 19.2166 74.6057 19.2166 74.172C19.3399 73.4719 19.7406 72.8399 20.055 72.2203C21.2757 70.1137 22.6567 68.0939 23.865 65.9873C24.198 65.3739 24.5309 64.7729 24.8638 64.1595C24.9316 64.017 25.0056 63.8435 25.1412 63.7568C25.209 64.1595 25.209 64.1595 25.246 64.2463C25.6283 64.8287 25.6283 64.8287 25.9612 65.281C26.627 66.1236 27.2744 66.7742 28.2854 67.1583C29.5431 67.5115 30.7823 67.1397 31.9043 66.5263C31.9721 66.4396 32.0091 66.4396 32.1139 66.4396C32.1818 66.737 32.0585 67.1397 32.0091 67.4247C31.7995 68.2674 31.7995 68.2674 31.5899 69.0233C31.3618 70.1447 31.1892 71.2909 31.0474 72.4124C30.9919 73.0444 30.9426 73.6578 30.8871 74.2712C30.8316 75.2749 30.8316 75.2749 30.7823 76.7991C30.7453 76.8672 30.7145 76.923 30.6775 76.9911C29.4691 77.1522 28.2854 77.239 27.0771 77.3071C26.3434 77.3195 25.5913 77.3381 24.8576 77.3381Z" fill="#9D9D9D"/>
</svg>
