<svg width="136" height="21" viewBox="0 0 136 21" fill="none" xmlns="http://www.w3.org/2000/svg">
<path fill-rule="evenodd" clip-rule="evenodd" d="M19.4329 0H20.8259C20.8259 6.81503 20.8259 13.61 20.8259 20.395L19.4329 20.3649C19.4329 14.4318 19.4329 7.21592 19.4329 0ZM18.3605 17.0776C15.4641 17.0476 12.5978 17.0476 9.72145 17.0476L9.69137 0H11.2248L11.2548 10.2827C11.2548 12.5276 13.0688 14.3416 15.3138 14.3416C16.5064 14.3416 17.5888 13.8305 18.3204 13.0087C18.3304 14.3717 18.3605 15.7146 18.3605 17.0776ZM21.9685 15.7347V9.88178H24.043L31.8603 19.6834H30.0663L23.4517 11.1345V15.7648L21.9685 15.7347ZM117.108 3.69816C115.034 3.69816 113.22 4.86071 112.278 6.5344C111.316 4.86071 109.492 3.69816 107.417 3.69816H92.4138V5.17141H107.417C109.662 5.17141 111.506 7.01547 111.506 9.26042C111.506 11.5054 109.662 13.3194 107.417 13.3194H105.884L105.944 20.7057H107.417V14.7926C107.477 14.7926 107.527 14.7926 107.587 14.7926C107.848 14.7926 108.068 14.7625 108.299 14.7325C108.64 14.6723 108.95 14.6223 109.261 14.5321C110.223 14.1913 111.135 13.5399 111.736 12.7181C111.767 12.688 112.077 12.267 112.218 11.9764L112.187 11.806C113.13 13.5699 114.974 14.7926 117.098 14.7926C118.832 14.7926 120.366 14.0009 121.388 12.7481V13.4897L121.418 14.7726L122.671 14.7425L122.731 0H121.338L121.368 4.83063V5.71258C120.345 4.48989 118.812 3.69816 117.108 3.69816ZM117.108 6.22372C115.465 6.22372 114.102 7.58673 114.102 9.26042C114.102 10.904 115.465 12.267 117.108 12.267C118.782 12.267 120.115 10.904 120.115 9.26042C120.115 7.58673 118.782 6.22372 117.108 6.22372ZM117.108 7.55665C116.166 7.55665 115.405 8.32836 115.405 9.26042C115.405 10.2025 116.176 10.9642 117.108 10.9642C118.05 10.9642 118.812 10.1925 118.812 9.26042C118.812 8.32836 118.04 7.55665 117.108 7.55665ZM117.108 5.17141C114.863 5.17141 113.049 7.01547 113.049 9.26042C113.049 11.5054 114.863 13.3194 117.108 13.3194C119.353 13.3194 121.197 11.5054 121.197 9.26042C121.197 7.01547 119.353 5.17141 117.108 5.17141ZM93.1555 6.25379H98.1565C98.1565 9.18024 98.1565 12.1368 98.1565 15.0933H96.8236L96.8837 7.50655H93.7869L93.8971 7.98762C94.0073 8.3885 94.0675 8.80943 94.0675 9.27045C94.0675 12.3071 91.572 14.8127 88.4952 14.8127C86.2803 14.8127 84.3761 13.5098 83.4641 11.6357V11.6958C82.5521 13.5399 80.678 14.8227 78.4931 14.8227C77.3306 14.8227 76.2181 14.4519 75.3362 13.8305C75.1658 13.7403 74.4542 13.0889 74.4242 13.0588C74.2839 12.9185 74.1435 12.7481 74.0233 12.5777L73.9631 14.7926L72.6803 14.8227V9.37068H72.6502C72.6502 9.34061 72.6502 9.31052 72.6502 9.28045C72.6502 7.0355 70.8362 5.19144 68.5913 5.19144C66.3463 5.19144 64.5023 7.0355 64.5023 9.28045C64.5023 11.5254 66.3463 13.3394 68.5913 13.3394C69.8741 13.3394 71.0367 12.7381 71.7683 11.806V14.8127H68.5913C66.8875 14.8127 65.3541 14.041 64.3319 12.8283C64.0513 12.4875 63.8208 12.2069 63.6203 11.806C62.6783 13.6 60.8342 14.8127 58.7095 14.8127H58.5993L58.6594 20.7457H57.1561L57.126 13.3294H58.6895C60.9344 13.3294 62.7785 11.5154 62.7785 9.27045C62.7785 7.0255 60.9645 5.21148 58.7195 5.18141H54.3699C52.125 5.18141 50.311 7.0255 50.311 9.27045C50.311 11.5154 52.155 13.3294 54.3699 13.3294H56.0136V14.3516V20.7457H54.5603V14.8127H54.3599C52.3154 14.8127 50.5515 13.7002 49.5894 12.0566C48.1662 14.3617 45.6407 15.2937 43.2253 14.6122H43.2554C42.1229 14.3015 41.1207 13.62 40.4191 12.7381C40.4191 13.0788 40.4191 13.4196 40.4191 13.7603V14.983L39.0562 14.953L39.0261 5.04112L33.7745 5.10125C32.3814 5.442 31.279 6.29388 30.9382 8.13795L30.8781 8.39853C30.818 10.443 30.818 12.4875 30.7879 14.502L34.6765 19.7035H33.0529L25.3259 9.65129L28.8737 4.22933H30.5474C29.4149 5.90302 28.1922 7.86734 27.0497 9.54104C27.7913 10.5633 28.583 11.5855 29.3247 12.6078C29.3548 11.325 29.3547 10.0221 29.3547 8.73928C29.4149 6.38408 31.3391 4.27943 33.6743 3.99881C35.9192 3.99881 38.1642 3.96875 40.4091 3.96875C40.4091 4.59012 40.4091 5.19144 40.4091 5.81281C41.4314 4.52998 42.9948 3.70816 44.7287 3.70816C45.1295 3.70816 45.5004 3.76831 45.8612 3.81842C47.3144 4.12911 48.6774 4.98097 49.5593 6.46424V6.52437C50.5214 4.85068 52.3154 3.70816 54.3599 3.70816H58.6794C60.8342 3.70816 62.7183 4.96092 63.6504 6.77492C64.3018 5.41192 65.5245 4.38966 66.9777 3.95871C65.6448 3.95871 64.362 3.95871 63.1693 3.95871V2.50553L81.5499 2.56566L81.5799 3.18702C81.3194 3.41753 78.8539 5.49211 78.884 5.60235C79.6557 6.17361 80.4174 6.88519 80.8985 7.707C81.129 8.07782 81.3294 8.47871 81.4096 8.86957C81.4697 9.13015 81.4998 9.24037 81.4697 9.47087C81.4697 9.56107 81.4697 9.64126 81.4396 9.73146C81.2091 11.1847 79.9664 12.2871 78.4831 12.2871C76.8094 12.2871 75.4464 10.9241 75.4464 9.28045C75.4464 9.25038 75.4464 9.25039 75.4464 9.25039V7.88739H76.7493V9.25039V9.28045C76.7794 10.2225 77.541 10.9842 78.4831 10.9842C79.3951 10.9842 80.1568 10.2125 80.1869 9.31052C80.1869 9.28045 80.1869 9.28045 80.1568 9.25039C80.1267 8.87957 79.9564 8.50876 79.7559 8.19808C79.1546 7.23595 77.7715 6.2137 76.9397 5.41193L78.5833 3.93868C75.4865 3.90861 72.8206 3.93868 70.1447 3.93868C71.4777 4.33957 72.6402 5.24155 73.3518 6.43418V6.40411C73.3819 6.46424 73.3819 6.51437 73.4119 6.54444C73.6725 6.97539 73.8429 7.42637 73.9531 7.87736H74.3841V9.24038C74.3841 9.24038 74.3841 9.24038 74.3841 9.27045C74.3841 11.5154 76.2281 13.3294 78.4731 13.3294C80.718 13.3294 82.532 11.5154 82.532 9.27045C82.532 9.24038 82.532 9.24038 82.532 9.24038C82.502 8.97981 82.4719 8.72924 82.4218 8.46866C82.1412 7.01546 81.1991 6.25378 80.5477 5.68252C81.2292 5.00101 82.0209 4.37965 82.7626 3.71819L82.7325 1.36299H63.1894V0H72.8808L84.1356 0.0300651V4.11907L82.492 5.57229C82.9229 6.19366 83.2035 6.62461 83.434 7.04554C84.2859 5.08121 86.2502 3.69816 88.5152 3.69816C90.4595 3.69816 92.1633 4.7204 93.1555 6.25379ZM99.3191 6.25379H107.417V6.22372C109.091 6.22372 110.454 7.58673 110.454 9.26042C110.454 10.904 109.091 12.267 107.417 12.267L104.721 12.237L104.691 20.7057H103.388L103.358 10.9041L107.417 10.9642C108.359 10.9642 109.121 10.1925 109.121 9.26042C109.121 8.31834 108.349 7.55665 107.417 7.55665H100.712V15.0532H99.4093C99.3792 12.1067 99.3191 9.18024 99.3191 6.25379ZM88.4952 6.22372C86.8516 6.22372 85.4886 7.58673 85.4886 9.26042C85.4886 10.904 86.8516 12.267 88.4952 12.267C90.1689 12.267 91.5018 10.904 91.5018 9.26042C91.5118 7.58673 90.1789 6.22372 88.4952 6.22372ZM88.4952 7.55665C87.5531 7.55665 86.7914 8.32836 86.7914 9.26042C86.7914 10.2025 87.5631 10.9642 88.4952 10.9642C89.4272 10.9642 90.199 10.1925 90.199 9.26042C90.199 8.32836 89.4373 7.55665 88.4952 7.55665ZM88.4952 5.17141C86.2502 5.17141 84.4362 7.01547 84.4362 9.26042C84.4362 11.5054 86.2502 13.3194 88.4952 13.3194C90.7401 13.3194 92.5842 11.5054 92.5842 9.26042C92.5942 7.01547 90.7401 5.17141 88.4952 5.17141ZM68.6113 6.22372C66.9376 6.22372 65.6047 7.58673 65.6047 9.26042C65.6047 10.904 66.9376 12.267 68.6113 12.267C70.255 12.267 71.618 10.904 71.618 9.26042C71.628 7.58673 70.265 6.22372 68.6113 6.22372ZM68.6113 7.55665C67.6693 7.55665 66.9076 8.32836 66.9076 9.26042C66.9076 10.2025 67.6793 10.9642 68.6113 10.9642C69.5534 10.9642 70.3151 10.1925 70.3151 9.26042C70.3151 8.32836 69.5534 7.55665 68.6113 7.55665ZM54.38 10.9642H58.6995C59.6416 10.9642 60.4032 10.1925 60.4032 9.26042C60.4032 8.31834 59.6616 7.55665 58.7295 7.55665H54.38C53.4379 7.55665 52.7063 8.32836 52.7063 9.26042C52.7063 10.2025 53.4679 10.9642 54.38 10.9642ZM58.7295 12.2771H54.38C52.7363 12.247 51.3934 10.9141 51.3934 9.27045C51.3934 7.59676 52.7263 6.26382 54.38 6.23375H58.7295V6.26382C60.3732 6.26382 61.7161 7.59676 61.7161 9.27045C61.7061 10.9141 60.3732 12.247 58.7295 12.2771ZM11.1646 13.9508C11.9363 14.8327 12.9586 15.4541 14.1212 15.7147C14.1813 15.7147 14.2113 15.7147 14.2615 15.7447H11.1646V13.9508ZM12.3071 10.3127C12.3372 11.9564 13.6702 13.2993 15.3138 13.2993C16.9875 13.2993 18.3204 11.9363 18.3204 10.2927L18.3505 4.78053H17.0175V10.3228C16.9875 11.2648 16.2458 11.9965 15.3138 11.9965C14.3717 11.9965 13.6401 11.2548 13.61 10.3228V4.75047H12.3071V10.3127ZM44.7487 6.22372C43.1051 6.22372 41.7421 7.58673 41.7421 9.26042C41.7421 10.904 43.1051 12.267 44.7487 12.267C46.4224 12.267 47.7553 10.904 47.7553 9.26042C47.7553 7.58673 46.4224 6.22372 44.7487 6.22372ZM44.7487 7.55665C43.8066 7.55665 43.045 8.32836 43.045 9.26042C43.045 10.2025 43.8167 10.9642 44.7487 10.9642C45.6908 10.9642 46.4525 10.1925 46.4525 9.26042C46.4525 8.32836 45.6908 7.55665 44.7487 7.55665ZM44.7487 5.17141C42.5038 5.17141 40.6898 7.01547 40.6898 9.26042C40.6898 11.5054 42.5038 13.3194 44.7487 13.3194C46.9937 13.3194 48.8377 11.5054 48.8377 9.26042C48.8377 7.01547 46.9937 5.17141 44.7487 5.17141ZM0 14.2614C0.090199 17.248 2.55564 19.6333 5.54222 19.6333H5.5723L17.1679 19.6634V20.3749H18.3605V18.2202L5.5723 18.1901V18.1601H5.54222C3.29727 18.1601 1.48328 16.346 1.48328 14.1011C1.48328 14.071 1.48328 14.071 1.48328 14.071V4.52998L0.0100242 4.49992V14.041C2.14118e-06 14.1211 0 14.1813 0 14.2614ZM2.53559 14.061C2.53559 14.061 2.53559 14.061 2.53559 14.0911C2.53559 15.7347 3.8986 17.0977 5.54222 17.0977H5.5723H8.43861L8.54886 0H7.12572L7.03552 15.7948H5.56227H5.53221C4.65026 15.7948 3.90862 15.0833 3.85851 14.2013L3.82844 4.50995H2.52557V14.061H2.53559ZM130.999 20.7057L130.969 10.1123L133.925 10.1424C133.474 10.6836 133.013 11.2548 132.472 11.7359V20.7157H130.999V20.7057ZM128.503 20.7057L128.473 11.6757H125.266L125.236 14.7425H123.783L123.813 10.0822L130.037 10.1123L129.977 20.7057H128.503ZM32.8725 15.0031L31.9605 14.973L31.9906 8.40853C32.2511 7.04553 32.9527 6.33395 33.9248 6.0834C35.1776 5.77271 36.6508 5.91304 37.9637 5.9431V14.973H36.6007V7.10567C34.9771 7.13574 33.564 6.96536 33.3335 8.94973V15.0031H32.8725ZM129.696 9.18025L123.813 9.09003V0H125.346V7.83726H128.554L128.584 3.65806H130.087L130.027 9.17022H129.696V9.18025ZM133.755 9.15019H130.969L131.029 3.66809C131.57 3.63803 132.081 3.66809 132.623 3.66809V7.81723H136L134.837 9.15019C134.497 9.2003 134.096 9.15019 133.755 9.15019ZM21.9685 8.71922L22.0286 0H23.4818C23.4818 2.41533 23.4517 5.68253 23.4517 7.69697H23.7023L25.9472 4.19927H27.651L24.6143 8.74928L21.9685 8.71922Z" fill="#9D9D9D"/>
</svg>
