<svg width="110" height="53" viewBox="0 0 110 53" fill="none" xmlns="http://www.w3.org/2000/svg">
<path fill-rule="evenodd" clip-rule="evenodd" d="M21.6216 52.4182C18.8275 50.8086 18.1429 46.9246 18.7798 43.7934C19.3927 40.7743 21.5739 37.531 26.0477 38.6601L25.8646 41.1107C24.7103 41.5191 23.5162 43.9456 24.3282 44.5382C25.0048 45.0187 25.9999 44.2659 26.4696 43.7854C29.5821 40.8144 31.6359 33.2306 32.9255 29.3226C32.225 29.4107 30.5533 29.6669 29.7175 30.3236C28.4756 31.3647 30.3941 32.9343 30.9593 33.8872C30.9354 34.2476 30.9593 34.8643 30.9354 35.2967C27.8468 37.0905 24.3919 34.1355 24.2804 30.756C24.2088 28.9142 24.4158 27.1684 25.57 25.6228C24.6466 26.7119 22.3222 27.0563 21.4624 26.0793C20.8097 27.4406 19.7271 28.9382 18.3738 29.8031C14.9667 31.9573 14.6483 28.1934 14.9189 25.5347C15.0065 24.6458 15.2373 23.8129 15.4841 22.9721C15.914 21.3864 16.4314 19.7928 16.9727 18.1832C17.721 16.005 18.5091 13.8267 19.2733 11.6004C18.7797 11.4163 18.7798 11.4162 18.7081 11.4403C17.5538 14.8197 16.4553 18.3433 15.1418 21.7708C13.6293 25.791 10.8352 33.0064 6.63207 34.3437C0.82888 36.1856 -0.994088 29.1224 0.494522 24.5177C1.30649 21.9951 3.5832 19.6167 6.44897 20.1852C6.85496 20.2573 7.21317 20.4095 7.53159 20.7058L7.23705 22.6357C6.80719 22.932 6.01911 23.7729 5.63701 24.5897C5.36635 25.4306 5.52556 25.9992 5.90766 26.2234C7.50772 27.1523 9.65705 23.0441 10.2859 21.7949C11.6153 19.0961 12.4989 16.2132 13.494 13.3702C13.7885 12.5534 14.0831 11.7366 14.3776 10.9197C13.6293 10.9197 12.1248 11.2401 11.2889 11.8727C9.82421 13.146 12.3716 15.116 12.1487 15.028L12.1964 16.8859C10.7317 17.999 8.38338 17.1581 7.22911 15.9809C6.41714 15.116 5.92357 13.9629 5.7166 12.6415C5.22305 9.07785 7.046 5.97067 10.5247 5.05774C14.7677 3.96862 19.122 5.46616 23.2297 6.91564C23.3889 6.96369 24.7899 7.48422 24.8058 7.48422C26.0716 5.85055 27.9184 4.46513 29.6777 4.55322C31.214 4.64131 32.432 5.75445 32.838 7.21194C33.7853 10.4793 31.5484 12.6815 28.5473 13.2501C28.9771 13.7306 30.3543 14.6836 29.5821 19.0641C29.6299 19.04 29.6538 19.016 29.6936 18.992C30.211 18.1752 31.0707 16.7417 31.8827 15.4524C33.3235 13.09 34.8201 12.0009 37.5426 12.2251C37.6143 12.6816 37.6143 13.114 37.6143 13.5865C38.4501 12.8177 39.9387 11.6805 41.2044 11.7446C41.8811 11.7686 42.3348 12.129 42.6453 12.7456C43.2105 12.3372 43.8632 11.8807 44.5638 11.7206C46.1001 11.4002 46.5937 12.6735 46.6414 12.7216C47.7718 11.9288 48.9181 11.0879 50.0485 11.6805C51.4018 12.3612 50.9481 14.7477 50.9481 14.7477C52.0546 12.8898 53.4078 11.1119 55.6209 10.5914C55.3502 9.36615 54.992 8.16491 54.9203 6.9797C54.7372 5.45814 55.3024 3.98465 56.2736 3.11977C57.4916 2.03065 59.2986 1.87047 60.3812 2.82344L60.4688 5.07377C59.9514 5.25796 59.6329 5.50619 59.4499 5.82652C58.7254 7.16389 61.4798 9.66245 63.1993 9.66245C64.4889 7.50825 66.0411 3.71236 68.2541 1.58218C70.3716 -0.411859 72.9907 -1.02849 72.927 2.78341C72.8792 5.48217 71.2314 8.98176 69.1139 10.5914C69.3368 10.6795 69.8622 11.7526 69.902 12.177C70.1726 12.177 70.4911 11.9528 70.714 11.8567C71.8443 10.7195 72.9509 9.47025 74.3678 9.06184C78.157 8.02077 78.0217 12.0569 77.9102 12.3532C78.5869 10.7676 78.9292 8.71749 80.7282 8.22098C81.8347 8.13289 82.8935 7.92469 83.9761 7.67643C83.9761 8.15693 83.9761 8.62939 84 9.10988C83.4825 10.0629 82.9651 10.9918 82.4636 11.9208C83.0925 11.9928 83.6816 12.3052 84.0239 12.7136C85.1781 11.6245 85.9423 10.5994 86.5951 9.23802C86.7066 8.98976 86.9135 8.55732 86.818 8.30906C86.6827 7.87662 85.6876 8.33309 85.4647 8.58134C85.417 7.69243 85.6717 6.78752 86.0936 5.99471C87.5344 3.38403 91.4828 2.75138 91.443 6.06678C91.443 6.4752 91.1246 8.26903 91.1724 8.31708C91.4192 8.15692 91.6898 7.99675 91.9605 7.86061C95.3437 6.31502 95.3675 9.33412 95.3675 9.79058C96.3148 8.22098 97.8751 6.74748 99.6742 6.79553C100.056 6.7715 101.234 7.09183 101.927 7.82057C102.15 7.57232 102.309 7.276 102.675 6.93165C103.758 6.74746 104.864 6.70743 105.971 6.63535C105.883 7.45219 105.764 8.245 105.676 9.06184C104.976 10.2871 101.545 17.5986 101.975 19.1842C102.269 20.2093 106.058 16.3894 106.377 15.4844C106.464 15.2602 106.377 14.8678 106.265 14.7317C106.178 14.7076 106.106 14.7076 106.043 14.7076C106.019 13.8908 105.931 13.0259 106.019 12.185C107.531 11.5524 109.243 11.7045 109.856 13.4583C110.079 14.7076 110.039 15.7967 109.768 16.7737C108.908 20.1372 103.766 24.83 100.287 23.5647C98.5279 22.932 98.4403 20.954 98.5756 19.3203C96.8164 20.4094 95.5507 20.6177 94.0143 19.3203C93.7197 19.5045 92.8441 20.978 91.2201 20.4335C89.9544 20.001 89.1186 18.6156 88.4658 17.5265C88.3305 17.3023 88.2429 17.1181 88.1952 17.046C88.036 17.3183 87.8131 18.5916 87.2001 19.7207C86.5235 21.0341 86.3006 20.9941 84.9234 21.0821C84.4935 21.1302 84.0398 21.1542 83.594 21.2423C83.4109 21.2663 83.2358 21.3144 83.0527 21.3784L83.2756 19.9049C82.1691 21.5386 79.757 22.3795 78.157 20.97C78.1809 21.9951 78.157 23.0121 78.0456 24.0372C77.5281 26.808 75.8803 28.0573 74.3917 30.2595C74.8454 30.668 75.1559 31.1885 75.14 31.7811C75.4584 31.7811 75.7927 31.5969 76.0873 31.3246C76.8992 30.6439 77.4167 29.8511 78.2048 29.2825C79.5103 28.3536 81.2536 28.4417 82.4477 29.6429C82.6547 29.3947 82.8059 29.0983 83.196 28.754C84.2786 28.5698 85.3851 28.5458 86.4677 28.4577C86.3802 29.2745 86.2608 30.0673 86.1732 30.8842C85.4727 32.1335 82.0417 39.445 82.4716 41.0065C82.7661 42.0316 86.5553 38.2117 86.8976 37.3308C86.9692 37.0825 86.8737 36.6981 86.7623 36.562C86.6747 36.538 86.6031 36.538 86.5394 36.538C86.5155 35.7211 86.4279 34.8562 86.5155 34.0394C88.0519 33.3827 89.7395 33.5429 90.3763 35.2887C90.5833 36.562 90.5356 37.6271 90.2888 38.6041C89.4052 41.9675 84.2627 46.6603 80.8078 45.395C79.0247 44.7624 78.961 42.7844 79.0725 41.1747C78.2127 41.6952 77.1779 42.1517 76.135 42.0396C74.734 41.8794 74.0812 40.494 73.8344 38.476C71.6931 42.0396 69.5278 43.0166 68.1029 42.8324C66.6382 42.6482 65.9615 41.2468 66.1207 41.1987C64.8311 42.1757 62.1485 44.0577 61.0897 43.1047C59.7364 41.8314 61.3126 37.4749 61.7902 36.1135C61.7664 36.0655 61.7664 36.0255 61.7664 35.9774L59.418 42.0396C59.2588 42.448 59.0996 42.8084 58.6697 43.1287C57.9692 43.6493 56.4567 43.7614 55.5572 43.9455L55.3502 41.9675C55.398 41.7593 56.409 38.9724 56.2975 39.0846C56.0269 39.7653 55.4855 40.9425 55.1671 41.6952C54.6895 42.8324 54.0367 43.8094 52.7551 43.9215C52.3013 43.9455 51.8317 43.9696 51.3779 43.9696C51.0834 43.9936 50.9242 44.0577 50.6535 44.1297L50.6774 43.0887C46.729 46.0437 47.0633 43.2729 46.9121 43.2729C43.1627 46.1078 42.51 44.0417 42.4224 43.9055C41.0452 47.0127 38.1556 51.241 34.2072 50.1279C32.2409 49.3751 31.7235 48.4061 31.1344 46.4281C31.0867 46.4521 31.0469 46.4761 31.023 46.5002C30.0518 48.3821 28.9453 50.3601 27.2975 51.6494C25.6178 52.9628 23.5162 53.5073 21.6216 52.4182ZM78.4834 29.8351C77.7351 30.3556 77.1779 31.1084 76.3818 31.7891C75.8405 32.2456 75.2992 32.5819 74.7579 32.5819C74.941 30.3156 73.2454 30.1074 71.6453 30.3316C73.516 29.6509 79.7252 22.1632 77.0346 20.2733C73.3329 19.024 69.7268 28.0573 68.7795 29.9632C66.8372 29.6429 65.1894 29.1704 64.2898 27.3766C63.5256 25.7669 63.4779 23.7409 65.1496 22.8119C65.1018 21.7468 62.5545 22.2433 61.631 23.4926C60.7315 24.806 60.3653 26.76 61.0658 28.0573C62.3077 30.3957 65.6033 30.7801 68.1984 31.0123C68.0392 30.8281 66.5267 35.3447 66.2322 37.8913C64.7914 39.1406 63.5734 39.8854 64.3615 37.4589C64.855 35.9373 65.667 34.5039 65.8262 32.9663C66.1844 29.6749 63.1833 30.5799 61.7664 32.3737C61.0022 29.8511 59.2429 31.1485 57.7941 32.3977C57.0697 29.4667 53.3521 31.9413 53.0815 33.2386C54.1004 32.8542 54.6417 32.8542 54.5064 34.0794C54.3233 35.4168 53.3521 37.2347 53.0178 38.0996C52.5402 38.484 51.8635 39.1406 51.1869 39.549C50.0167 40.2778 49.8336 39.9575 50.2635 38.7082C50.6456 37.6191 51.3461 36.0094 51.8635 34.7601C52.3571 33.5349 53.0178 32.1254 53.4875 31.653C53.1292 31.741 52.7233 31.7891 52.3173 31.8372C51.6645 31.8852 51.2346 31.7891 50.6933 32.2456C49.3162 34.2636 48.9977 36.602 47.9151 38.6281C47.6683 38.9244 47.326 39.2447 46.9917 39.517C46.6335 39.7653 46.3628 39.9014 46.1797 39.8614C45.7499 39.7893 45.7738 39.1807 45.9091 38.548C46.2036 37.3868 46.8086 35.9614 47.3101 34.8723C47.7639 33.9193 48.2335 33.0144 48.751 31.9172C48.5918 32.0294 48.0982 32.1895 47.6206 32.2135C46.9439 32.2616 46.3151 32.2616 45.7737 32.694C44.8503 34.8963 43.7677 37.1466 43.1309 39.485C42.9478 40.1897 42.7249 40.9585 42.8602 41.7113C43.0831 42.8484 44.0145 42.7764 45.0016 42.2318C45.9728 41.7113 47.0076 40.7583 47.5251 40.1016C47.4773 40.0776 47.4375 40.7182 47.5489 41.1667C48.0027 42.9846 49.3958 42.2318 50.4625 41.415C51.2108 40.8464 51.8635 40.1016 52.4924 39.2848C52.1103 40.2377 51.7441 41.2147 51.362 42.1677C51.4734 42.1437 51.6088 42.0956 51.7202 42.0956C52.6675 41.9355 53.1213 42.0076 53.5034 41.7994C53.7501 41.6872 53.981 41.455 54.2676 40.9825C54.9681 39.6852 56.6159 35.4889 57.3562 34.0154C57.81 33.1745 59.0678 32.5659 58.6857 34.2396C58.2797 35.3528 55.9552 41.3188 55.9313 41.8634C57.014 41.6792 58.0329 41.7513 58.7493 40.8384C58.8608 40.6542 58.8608 40.7903 61.2091 34.4398C61.432 34.0314 61.7505 33.671 62.1564 33.5109C62.7216 33.2626 62.9923 33.3267 62.9684 33.9914C62.9445 34.624 62.6102 35.4649 62.451 35.9694C61.9972 37.4189 61.3445 38.7162 61.2091 40.2377C61.1375 41.1267 61.2808 41.5111 62.3156 41.3989C63.7406 41.2388 65.5396 39.2848 66.3516 38.6521C66.4392 39.1086 66.6223 39.493 66.8451 39.8133C67.5457 40.7022 68.7875 40.9024 69.8224 40.47C72.306 39.5651 74.1529 35.9053 74.6703 33.5669C74.8534 33.615 75.5937 33.3187 75.5937 33.2065C74.9808 34.656 74.0812 36.7462 74.5111 38.3799C74.8056 39.469 75.3469 39.9494 76.0236 40.0375C77.2654 40.2217 79.1123 38.8603 79.8844 38.0835C79.4068 40.7423 79.0963 43.9616 82.6626 43.5291C85.7752 43.1688 88.6887 39.9174 89.7713 37.2667C90.249 35.633 89.5485 34.3117 88.1474 34.2476C87.9404 34.2236 86.8817 34.3357 86.8817 34.5439C87.7812 34.8643 87.6698 36.6341 87.423 37.3148C86.9295 38.7482 83.586 42.2878 82.2089 41.9195C79.8605 41.3028 84.804 30.684 85.6399 29.3226C85.6399 29.2505 85.6637 29.2105 85.6637 29.1624C84.9155 29.2105 84.1751 29.2505 83.4268 29.2986C82.9492 29.731 82.7263 30.0513 82.3681 30.5959C81.3491 29.0183 79.9083 28.8581 78.4834 29.8351ZM77.6077 35.9854C77.3609 34.2156 79.2555 30.8361 80.7203 31.4928C82.1213 32.1255 80.2904 35.6731 79.2954 36.3938C78.5789 36.9144 77.743 37.0745 77.6077 35.9854ZM78.3082 36.1696C78.5789 35.1045 79.3033 33.5589 80.4974 33.4468C80.1551 34.5119 79.4784 35.8973 78.3082 36.1696ZM21.3271 50.264C18.1429 48.246 18.8036 42.456 21.3749 40.0696C22.4575 39.0686 23.8983 38.5721 25.5462 39.0045C24.4158 39.6852 23.3809 41.5271 23.3093 43.0486C23.2615 44.362 23.8506 45.5472 25.2755 45.2269C27.7114 44.6823 29.606 40.0536 30.3065 38.3718C31.2777 35.8733 32.1374 33.3587 32.9892 30.8121C33.4668 29.5388 33.8489 28.1534 35.043 27.4326C32.5593 27.1363 28.9055 27.7049 28.6348 30.0193C28.4756 32.1735 30.3463 33.631 30.2349 33.631C28.8339 33.8392 27.6159 33.631 26.7164 33.0144C24.3441 31.4928 24.4158 28.2255 25.9522 26.1593C27.4408 24.1653 29.9881 23.5006 32.6787 23.5246C32.026 22.908 31.6598 21.5066 32.2489 19.4645C32.6071 18.4394 32.5912 18.4394 32.5912 18.4234C32.2489 19.1281 31.9782 19.6487 31.7792 20.0571C31.0548 21.3704 29.407 24.3735 27.6716 23.893C27.1303 23.7569 26.7243 23.2364 26.8596 22.3074C26.3661 22.876 24.7183 24.6218 22.5291 24.3735C21.1758 24.2374 20.6345 23.3324 20.4992 22.1953C20.3161 20.6977 20.6345 19.1762 21.2475 17.8148C22.0356 16.093 23.7073 13.8908 25.5143 13.2501C26.3024 13.0019 27.0746 13.0259 27.791 13.5464C30.0279 15.1561 28.8498 18.5596 27.9502 20.6257C28.4279 20.8499 29.1921 20.3774 29.7811 19.7608C31.222 18.2392 31.9464 15.9729 33.3474 14.3392C34.5017 13.0019 35.4888 12.7536 37.1366 12.7536C37.1366 13.074 33.8171 18.5195 34.4062 20.5136C34.6768 21.4425 35.6241 20.6497 36.1177 20.2653C37.5585 19.1281 38.6252 17.1101 39.071 15.4284C39.4133 14.131 38.7128 14.115 37.67 14.5394C38.2829 13.5865 40.1536 12.0889 41.3716 12.3852C41.8652 12.5454 42.2552 13.0659 42.4303 13.7226C43.1786 12.9698 44.1418 12.177 45.0493 12.2491C46.0205 12.3372 46.2036 12.9298 46.4026 13.6585C47.0315 13.114 48.2972 11.9528 49.3162 12.0249C50.3112 12.0729 50.5341 12.9538 50.5102 13.7466C50.4625 14.0429 50.4227 14.3392 50.3271 14.6355C49.9848 16.1331 49.3082 17.8148 48.8385 19.3123C48.7669 19.4965 48.7032 19.6567 48.6793 19.8329C48.5679 20.898 49.945 19.969 50.2794 19.6967C50.4625 16.6776 51.8158 12.8177 55.0398 11.4082C56.393 10.8156 57.611 11.0479 58.3354 12.4093C58.7891 11.7045 58.9643 11.4082 59.6887 11.0479C57.818 10.2551 56.0587 9.18996 55.5174 7.02775C55.0238 5.03371 56.2816 2.91955 58.3115 2.75939C58.9404 2.68731 59.8479 2.83147 59.8718 3.21586C56.194 5.69039 60.437 10.3912 63.5973 10.3191C65.3088 7.1639 67.3228 1.64624 70.8652 0.645212C71.4304 0.485048 71.9239 0.533107 72.1946 1.00559C72.6483 1.84645 72.2822 2.91154 72.0115 3.72837C71.0642 6.47518 68.9865 8.65341 66.3277 10.8076C68.2462 10.3271 69.1696 10.9438 69.5358 12.8978C70.0771 12.8497 70.9607 12.3772 71.096 12.2811C72.2026 11.0319 74.2325 8.96573 75.9917 9.55834C77.3689 10.0388 77.6634 11.6004 77.2097 12.7376C76.2863 15.052 73.4205 13.5544 74.6146 11.4643C74.6623 11.3762 74.726 11.3041 74.7738 11.216C72.3618 11.6965 69.7905 20.2973 75.6335 16.5735C76.4933 16.0049 77.2813 15.2762 77.7749 14.5795C78.3162 12.8097 79.152 10.5353 79.6456 9.65443C79.7332 9.49427 79.8287 9.38216 79.8924 9.33411C80.5053 8.71748 81.3173 8.70146 82.1293 8.62939C82.2009 8.60536 82.8935 8.51728 82.8935 8.51728C81.8347 10.4953 80.4576 12.8497 79.9561 15.1C79.8207 15.7807 79.6138 17.2302 80.4337 17.5505C81.6516 18.007 82.6467 15.8047 82.5512 14.6195C80.9909 14.3232 80.7919 13.0099 81.986 12.5774C82.7104 12.3052 83.5622 12.8017 84.0159 13.4824C86.022 11.9368 87.6061 9.67046 87.9006 7.03576C87.7892 6.08279 87.0648 6.37908 86.412 6.65136C86.412 5.10578 91.244 2.87952 90.7186 6.01873C90.4241 7.81257 89.2937 10.6234 89.3892 10.5113C89.9067 9.96676 90.3843 9.53433 90.8142 9.19799C93.7277 6.90764 94.8103 8.17292 94.7864 9.63041C94.7626 10.5193 94.3327 11.4723 93.6799 11.7846C92.7565 12.2171 91.65 11.7846 91.5624 10.7436C91.5386 10.6314 91.5624 10.5193 91.5863 10.3992C91.0211 10.4713 89.7554 11.3041 89.4688 11.8086C90.2808 13.146 91.1167 15.052 92.4063 16.1251C92.9476 16.5815 93.2899 16.6216 93.871 16.1491C94.0939 13.3783 96.1954 7.34008 99.6742 7.38813C100.868 7.41215 101.298 7.79655 101.927 8.7255C102.269 8.18095 102.516 7.83657 102.986 7.42816C103.734 7.38011 104.474 7.34008 105.223 7.29203C105.199 7.34008 105.199 7.38011 105.199 7.42816C104.363 8.81357 99.4194 19.4405 101.744 20.0491C103.121 20.4095 106.48 16.8698 106.982 15.4444C107.229 14.7396 107.34 12.9698 106.441 12.6735C106.441 12.4653 107.499 12.3532 107.706 12.3532C109.083 12.4413 109.808 13.7626 109.33 15.3963C108.248 18.055 105.334 21.2984 102.222 21.6587C98.6552 22.0912 98.9737 18.8639 99.4433 16.1891C98.4722 17.1661 96.7606 18.2793 95.4949 18.1672C94.7705 18.0951 94.3247 17.6466 94.0939 16.9899C93.3695 17.6947 92.7884 18.3994 92.0639 18.5115C90.034 18.8719 89.0867 15.3803 88.0678 14.3312C87.5504 15.7167 87.2081 16.8939 86.8737 17.7588C86.5553 18.6477 86.3324 18.936 85.9742 19.0561C85.6319 19.1682 85.1622 19.1041 84.398 19.2162C84.2149 19.2402 84.0398 19.3043 83.8567 19.3524C84.398 17.7828 86.5155 12.7696 86.3165 12.4733C85.6398 13.106 85.0508 13.5624 84.2388 14.0429C84.4617 16.7017 81.8905 20.6737 79.1202 19.6006C77.4087 18.968 77.3609 16.2852 77.6077 15.8768C76.4136 17.6466 73.723 21.0101 71.2871 20.4175C68.4691 19.7608 69.3447 15.5164 70.3159 13.5144C70.0453 13.6265 69.7746 13.7386 69.5039 13.8748C69.297 14.5555 69.1617 15.4604 68.7159 16.3973C67.6332 18.6637 65.6431 21.1222 63.4619 21.0741C61.838 21.0261 61.4559 19.913 61.0738 18.5355C60.5564 19.2162 58.3672 21.4425 57.0139 21.5787C56.3373 21.6667 55.8836 21.2343 55.9075 19.8729C55.5652 20.2333 55.0955 20.6657 54.578 21.0501C53.4079 21.891 51.4416 22.6838 50.5819 20.962C50.4943 20.8019 50.4227 20.6016 50.3988 20.3934C49.9052 20.7778 48.5042 22.1632 47.3499 22.5476C45.8613 23.0441 45.6544 22.2273 45.8374 21.0261C46.132 19.1442 47.127 17.3503 47.533 15.4844C47.939 13.7146 46.132 15.052 45.8852 15.6446C45.1369 17.5505 44.3727 19.4565 43.6085 21.3384C42.9955 22.924 42.2075 22.9721 40.9497 23.0842C40.7905 23.1082 40.6313 23.1322 40.4721 23.1563C40.5198 22.908 43.115 16.2132 43.4493 15.2121C43.5846 13.6906 42.0084 14.9158 41.7139 15.6206C40.7188 17.9349 39.7317 20.2733 38.7367 22.5877C38.1715 23.2924 37.3118 23.2203 36.4839 23.2684C36.3008 23.2924 36.1416 23.3405 35.9903 23.3805C37.0491 20.7938 37.0491 20.7938 37.0252 20.7458C36.261 21.6988 35.4649 22.6998 34.4539 23.3805C34.0957 23.5647 34.0957 23.5647 34.0479 23.6047C37.8849 24.4696 41.5149 25.9671 45.3518 26.6719C46.2753 26.856 49.3002 26.9682 48.1062 25.2624C47.6126 24.5817 46.4106 24.2374 45.6225 24.3975C45.6225 24.0772 48.5758 23.1002 49.9132 24.5097C51.1312 25.807 50.2714 27.8491 49.0296 28.778C46.0922 30.9562 39.9546 28.5698 37.2083 27.737C36.8262 27.737 35.4012 32.4778 35.3774 32.686C38.8561 31.1885 41.4273 32.0934 42.4861 34.8002C44.0622 38.8604 41.1806 46.332 37.272 47.9417C35.1545 48.8065 33.1882 48.1498 32.424 45.8995C31.7713 43.9696 31.9942 41.431 33.0131 40.7022C33.0847 42.7443 34.3186 44.4501 36.8501 43.2008C38.6571 42.2718 39.7397 39.8374 40.074 37.7792C40.2332 36.7142 40.281 35.4889 39.4611 34.6721C38.2431 33.4708 35.9823 34.648 34.9236 36.4178C34.5415 37.531 34.43 38.2597 33.2519 38.508C31.9862 41.6872 30.3623 46.9086 27.3134 49.4952C25.5223 50.9928 23.3172 51.5373 21.3271 50.264ZM33.5783 40.5501C34.8679 40.0696 34.9555 39.1887 35.449 37.9394C36.1495 36.7622 37.1207 36.1215 38.474 36.2176C39.1745 36.3778 39.4213 36.8743 39.3974 37.531C39.3257 39.4129 37.1844 44.1858 34.637 42.8644C33.9604 42.5201 33.4907 41.7994 33.5783 40.5501ZM47.143 37.9795C48.0266 35.9374 48.7908 34.4638 49.7381 32.4618L49.6266 31.0123C48.8385 31.2846 48.2495 31.6049 47.6604 31.6049C47.3022 31.6049 45.6782 31.7891 45.4235 32.1255C45.2165 32.3497 43.3936 36.53 43.4572 36.618C43.3458 35.8893 43.2503 35.2326 43.0513 34.664C42.0801 31.8692 40.0979 30.9402 36.6908 31.5569C36.7386 31.3086 36.85 31.1244 37.256 29.9232C37.256 29.9232 40.074 30.9242 42.5577 31.3967C43.5528 31.5809 44.5001 31.7411 45.4235 31.7411C46.8245 31.7651 48.2893 31.2846 49.4197 30.2195C51.1789 28.5618 52.0148 26.0232 50.1679 24.0211C49.8097 23.6127 49.356 23.3885 49.3082 23.4526C49.6027 23.3164 49.9848 23.0922 50.3669 22.86C51.8555 24.6538 54.2039 24.0612 55.6049 22.5156C55.8517 23.7409 57.2289 23.7889 58.1762 23.2443C59.1713 22.6758 60.1185 21.6587 60.7235 21.0421C60.6758 21.3144 61.5833 22.5877 61.6947 22.6277C58.9404 25.3025 60.2698 28.714 60.9464 30.4357C59.816 30.2515 59.1155 30.708 58.1921 31.3647C57.5792 30.1634 55.7562 30.2275 54.2915 31.1404L54.1084 30.9803C54.1084 31.0523 53.2964 31.2526 52.373 31.3647C51.5371 31.4768 51.2187 31.2285 50.5262 31.7971C49.4913 32.614 48.4485 36.8583 47.4773 38.3558C47.2703 38.6281 47.0713 38.8123 46.9837 38.7883C46.8962 38.7963 46.8962 38.548 47.143 37.9795ZM51.4257 38.7082C51.4257 37.9154 52.4606 36.0334 52.8268 35.2807C53.1213 35.0965 53.3681 34.9844 53.6626 35.1205C53.3044 35.9854 52.9621 36.8423 52.6277 37.7072C52.2218 38.0515 51.8396 38.3879 51.4257 38.7082ZM65.3725 37.9634C65.3725 37.9634 66.0013 35.561 66.0491 35.3047C66.1844 34.4639 66.4312 33.1265 66.4073 32.9903C66.5665 32.9663 66.7019 32.9663 66.8611 32.9423C66.4073 34.1675 65.7546 37.2347 65.7068 37.6831C65.6033 37.8273 65.4839 37.8913 65.3725 37.9634ZM68.9149 36.2817C68.8432 34.8963 69.5915 32.9663 69.9975 32.1014C70.6264 32.8942 71.1518 33.3507 72.0513 33.8232C72.0513 35.0484 71.2393 36.3858 70.1567 37.0505C69.2333 37.5951 68.9626 37.3708 68.9149 36.2817ZM69.5915 36.8263C69.5915 36.4659 69.7507 34.6961 70.2204 34.6961C70.6741 35.1526 70.6741 35.1526 70.9448 35.3287C70.9448 35.8733 70.0692 36.6421 69.5915 36.8263ZM70.9687 31.7651C71.3747 31.7651 72.4095 32.0854 72.2105 32.7661C71.6294 32.5098 71.2393 32.1495 70.9687 31.7651ZM2.01498 31.1725C-0.397049 28.6739 0.438816 23.7248 3.04985 21.5226C3.90959 20.906 6.00319 20.1132 6.97437 20.89C6.79128 21.0261 6.59225 21.2103 6.38527 21.4105C5.7962 22.0031 5.21509 22.7959 4.89667 23.6608C4.19615 25.5187 5.54944 27.7209 7.44403 26.6318C10.4213 24.9101 13.1995 15.9169 14.0114 13.5544C14.2343 12.8497 14.4891 12.145 14.712 11.4403C15.1657 10.3992 15.5239 9.5103 16.5429 8.96574C14.8075 8.71749 11.9417 8.91769 10.676 10.2631C8.64606 12.4413 11.7586 15.4844 11.6472 15.124C10.1347 15.7567 8.75751 15.052 7.56343 14.147C5.17529 11.6245 6.32161 7.90065 8.96449 6.26698C11.9895 4.36103 17.3389 5.53823 20.539 6.56328C21.9639 7.01975 23.4048 7.60434 25.1004 8.06081C26.1193 6.47519 27.8547 4.96965 29.6617 5.08978C31.015 5.17787 32.3046 6.25095 32.3683 7.65239C32.5753 11.3281 27.4487 11.3282 24.9651 10.9197C22.8635 10.5594 20.8097 9.91871 18.6922 9.33411C17.9041 10.2871 17.4265 12.0089 16.9966 13.2421C16.2961 15.2842 15.5956 17.3263 14.8791 19.3524C14.2662 21.0982 13.5895 22.8039 12.8731 24.5016C11.289 28.2415 6.59225 35.9133 2.01498 31.1725ZM70.6105 29.9472C71.0403 29.1064 72.6404 26.0873 73.8185 24.9341C74.5827 24.1653 74.7658 24.5497 74.4952 25.4146C73.9061 27.1764 71.9876 29.1304 70.6105 29.9472ZM68.2621 29.4507C66.2959 29.0183 64.5366 28.1774 64.5366 25.839C64.7436 25.1583 64.9426 24.9101 65.6431 24.7499C65.6909 24.4296 65.6192 23.6608 65.667 22.4355C66.7496 21.4826 67.9676 20.3053 68.7557 18.5756C68.8671 18.5756 68.5089 22.9561 72.3856 22.3474C71.6294 22.6117 68.485 28.9061 68.2621 29.4507ZM17.3787 18.5275C18.326 15.5965 19.4086 12.6015 20.4912 10.3111C21.9799 9.99078 22.3381 11.6084 22.163 12.6976C20.945 15.8047 19.7032 18.944 18.939 22.1873C17.9917 26.1353 20.3798 24.1813 21.0565 24.0292C20.6982 25.3906 19.544 26.9361 18.1668 27.801C15.4841 29.5068 15.1418 27.3045 15.5956 24.6698C16.0015 22.1793 17.1319 19.2963 17.3787 18.5275ZM40.3288 24.862C40.2412 24.814 41.7059 24.5657 42.3348 24.4536C43.4891 24.2454 43.8473 23.7489 44.3011 22.6117C44.6593 21.7228 46.4663 17.1181 46.4902 17.1421C45.7658 19.3924 44.9777 21.4745 45.2722 23.909C45.113 23.9971 44.9538 24.1333 44.8185 24.2934L46.5778 26.2234C46.4186 26.3355 46.1001 26.3355 45.2722 26.1513C43.6005 25.839 40.9577 25.0862 40.3288 24.862ZM38.3625 24.1333C38.7685 24.0612 39.1506 23.9251 39.5566 23.5407L40.6392 20.93C40.2571 21.9711 39.891 23.0201 39.5089 24.0612C39.8034 24.5417 39.8034 24.5417 39.8034 24.6057C39.3098 24.4536 38.8402 24.2934 38.3625 24.1333ZM19.8624 22.3154C19.8624 22.86 19.8624 23.4045 19.8624 23.9731C19.2096 24.4776 19.8624 22.1793 19.8624 22.3154ZM23.4685 19.961C23.3968 19.0321 23.763 17.8468 24.3282 16.9179C25.1879 15.5084 27.2418 14.3312 27.1462 16.6456C27.0985 17.983 26.1273 20.0491 24.9093 20.7538C24.0098 21.2984 23.564 20.978 23.4685 19.961ZM24.5113 19.2803C24.782 18.7838 25.5303 17.4224 26.1591 17.3263C27.1064 17.3743 25.8009 19.3444 25.0287 20.1212C24.1053 21.0501 24.1292 20.0491 24.5113 19.2803ZM35.2261 20.1612C35.5684 19.1602 36.0142 18.2072 36.4441 17.2783C37.0331 16.982 37.6381 16.6616 38.2511 16.3733C37.9327 17.4384 36.1973 19.7768 35.2261 20.1612ZM76.6126 19.6166C76.7002 19.3924 76.8594 19.2323 77.0903 19.1602C77.1778 19.5926 77.2017 19.5926 77.2734 19.7528C77.1062 19.6887 76.8355 19.6166 76.6126 19.6166ZM58.7891 17.2382C59.5135 15.1481 60.4131 13.3142 61.4479 11.3602C61.9654 11.3602 62.4669 11.3602 62.9843 11.3602C62.1962 12.8577 61.1534 15.6766 61.1375 17.3343C60.8907 18.3113 59.625 19.1041 58.8847 19.3123C57.9294 19.5526 58.6697 17.6867 58.7891 17.2382ZM53.6626 16.3013C54.0686 14.9879 54.992 13.5785 56.0109 13.3462C57.1413 13.0739 57.205 14.0269 57.0936 14.8918C56.9105 16.4134 55.804 18.047 54.4746 18.5275C53.0974 19.008 53.4397 17.1181 53.6626 16.3013ZM59.4419 18.3433C59.8718 16.9819 60.636 15.1881 61.4479 13.9388C61.4241 13.9628 61.4002 14.0509 61.3604 14.1871C61.1773 14.7797 60.7474 16.2292 60.7076 16.9339C60.4768 17.6226 60.0947 18.1912 59.4419 18.3433ZM54.2278 18.1191C54.4984 17.03 55.2467 15.4204 56.4647 15.3082C56.1463 16.5335 55.2626 17.5105 54.2278 18.1191ZM64.855 12.3052C65.2371 13.6425 66.3675 14.2351 66.9088 14.2591C66.5267 15.4203 66.1446 16.6456 65.1973 17.3023C62.2121 19.3924 64.656 12.3052 64.855 12.3052ZM64.3615 17.2142C64.3615 16.4614 64.6321 15.7647 64.855 15.06C64.9028 15.1721 65.3963 15.5565 65.7148 15.6766C65.6192 16.2772 64.6719 17.078 64.3615 17.2142ZM80.8078 15.7327C80.9432 16.1171 81.2616 16.4134 81.4845 16.5976C81.2775 16.7577 81.1024 16.9179 80.8954 17.03C79.972 17.5265 80.6725 15.7327 80.8078 15.7327ZM72.7757 16.5735C72.911 15.7327 73.317 14.9879 73.723 14.2591C73.7469 14.2351 73.7708 14.2351 73.8106 14.2351C74.0335 15.1881 74.4395 15.6846 75.3868 15.9409C75.3947 16.3493 72.5926 17.6466 72.7757 16.5735ZM90.7823 12.8737C90.8938 12.7857 91.1246 12.5774 91.26 12.6255C91.8013 13.7867 92.3426 14.099 93.6481 13.8267C93.4889 15.028 93.4252 15.0279 93.3297 15.8928C92.7247 16.3253 90.9177 13.5144 90.7823 12.8737ZM97.103 14.147C96.8801 12.3772 98.7747 8.97374 100.239 9.65443C101.64 10.2871 99.8095 13.8107 98.7985 14.5555C98.098 15.076 97.2622 15.2362 97.103 14.147ZM22.4973 14.7396C22.7441 13.9869 22.7202 13.3782 22.7202 12.5854C23.1023 12.6735 23.9859 12.8577 24.6387 12.9698C24.5352 12.8978 22.7282 14.099 22.4973 14.7396ZM97.8274 14.3312C98.0741 13.2421 98.8224 11.7206 100.016 11.6084C99.6742 12.6495 98.9975 14.059 97.8274 14.3312ZM81.7153 13.146C82.2089 13.146 82.599 13.6665 82.5034 14.0109C81.986 14.2111 81.6676 13.6265 81.7153 13.146ZM65.8023 12.105C66.6621 12.105 66.8213 12.4493 66.9964 13.17C66.5506 13.17 65.8023 12.6255 65.8023 12.105ZM65.4202 10.3111C65.6033 9.83062 67.3626 6.56329 68.4691 5.27397C69.1457 4.48116 69.5278 4.6173 69.2572 5.5943C68.7636 7.49224 66.9566 9.40619 65.4202 10.3111ZM29.001 8.38113C27.4009 8.65341 26.4537 8.38115 25.7929 8.19696C25.8805 7.94871 26.0875 7.62837 26.382 7.33206C27.3054 6.42714 28.6348 6.37909 29.2955 6.76349C30.012 7.20394 29.9722 8.13288 29.001 8.38113Z" fill="#9D9D9D"/>
</svg>
